<svg width="2560" height="426" fill="none" xmlns="http://www.w3.org/2000/svg"><mask id="prefix__a" style="mask-type:alpha" maskUnits="userSpaceOnUse" x="0" y="0" width="2560" height="471"><path d="M2560 0H0v470.888h2560V0z" fill="#D9D9D9"/></mask><g mask="url(#prefix__a)"><path d="M311.415 203.884a89.2 89.2 0 01-21.537 2.624c-49.153 0-89-39.847-89-89 0-49.154 39.847-89 89-89 38.616 0 71.488 24.593 83.807 58.971 10.928-4.1 22.764-6.343 35.125-6.343 41.213 0 76.603 24.933 91.908 60.538 66.31 14.399 117.395 69.619 125.621 138.025 32.16 8.113 57.358 33.732 64.865 66.129C701.358 328.012 720.526 316 742.5 316c12.55 0 24.186 3.919 33.75 10.6l.169-.086C794.076 283.943 836.041 254 884.999 254c39.813 0 75.001 19.801 96.254 50.092C995.633 292.782 1013.99 286 1034 286c11.71 0 22.86 2.324 32.97 6.52 10.34-17.093 29.1-28.52 50.53-28.52 19.6 0 36.97 9.557 47.7 24.265 12.87-11.367 29.78-18.265 48.3-18.265 18.96 0 36.24 7.231 49.22 19.085C1278.19 269.539 1302.13 257 1329 257c25.12 0 47.68 10.961 63.16 28.36 13.81-25.805 41.02-43.36 72.34-43.36 31.05 0 58.06 17.255 71.99 42.698A86.472 86.472 0 011558 282c24.71 0 46.91 10.347 62.2 26.792 17.36-11.256 38.07-17.792 60.3-17.792 42.37 0 79.19 23.736 97.9 58.636 10.75-33.995 42.55-58.636 80.1-58.636 22.68 0 43.27 8.991 58.38 23.602a78.016 78.016 0 017.14-1.533c5.5-27.609 25.48-49.995 51.69-58.908 9.43-78.342 72.61-140.142 151.59-147.439 30.6-42.381 80.43-69.962 136.7-69.962 93.06 0 168.5 75.44 168.5 168.5 0 87.766-67.1 159.86-152.8 167.778C2249.1 415.419 2199.27 443 2143 443c-42.75 0-81.78-15.919-111.49-42.152a77.795 77.795 0 01-17.53 5.083C2006.81 441.896 1975.07 469 1937 469c-17.82 0-34.25-5.935-47.42-15.937-9.61 3.831-20.1 5.937-31.08 5.937-8.35 0-16.41-1.217-24.02-3.484-6.51 42.739-43.42 75.484-87.98 75.484-20.51 0-39.4-6.937-54.45-18.594-3.8.393-7.65.594-11.55.594-47.58 0-88.16-29.932-103.95-71.993A86.875 86.875 0 011558 443c-30.73 0-57.58-15.999-72.07-39.828A82.145 82.145 0 011464.5 406c-14.3 0-27.75-3.662-39.46-10.1a58.621 58.621 0 01-25.68-7.587C1384.21 411.032 1358.35 426 1329 426c-26.08 0-49.4-11.814-64.9-30.383-13.12 12.623-30.95 20.383-50.6 20.383-29.27 0-54.52-17.227-66.15-42.095-8.76 5.145-18.96 8.095-29.85 8.095-.52 0-1.03-.007-1.54-.02-7.49 37.053-41.34 65.02-81.96 65.02-18.02 0-34.699-5.5-48.341-14.854C965.087 466.219 927.704 489 884.999 489c-9.825 0-19.369-1.206-28.491-3.478C844.48 491.585 830.889 495 816.5 495c-39.738 0-73.393-26.043-84.828-61.991-19.934-3.698-36.349-17.417-43.823-35.734C675.189 431 642.647 455 604.5 455c-20.36 0-39.123-6.836-54.119-18.339-24.463 14.977-53.231 23.61-84.015 23.61-88.992 0-161.134-72.142-161.134-161.133 0-25.04 5.712-48.745 15.902-69.884a99.339 99.339 0 01-9.719-25.37z" fill="url(#prefix__paint0_linear_1_117)"/><path d="M1286.29 367.193c0 38.987-31.61 70.593-70.6 70.593-38.99 0-70.59-31.606-70.59-70.593 0-38.988 31.6-70.594 70.59-70.594s70.6 31.606 70.6 70.594z" fill="#2E3048"/><path d="M1179.91 347.852c0 31.511-25.54 57.055-57.05 57.055-31.51 0-57.06-25.544-57.06-57.055s25.55-57.055 57.06-57.055 57.05 25.544 57.05 57.055zM817.272 398.138c0 31.511-25.544 57.055-57.055 57.055s-57.055-25.544-57.055-57.055 25.544-57.056 57.055-57.056 57.055 25.545 57.055 57.056z" fill="#2E3048"/><path d="M1011.65 394.753c0 62.755-50.876 113.627-113.63 113.627-62.755 0-113.627-50.872-113.627-113.627 0-62.754 50.872-113.627 113.627-113.627 62.754 0 113.63 50.873 113.63 113.627zM712.832 389.434c0 47.534-38.533 86.067-86.066 86.067S540.7 436.968 540.7 389.434c0-47.533 38.533-86.066 86.066-86.066s86.066 38.533 86.066 86.066zM373.011 123.595c0 47.533-38.533 86.067-86.066 86.067s-86.067-38.534-86.067-86.067c0-47.533 38.534-86.066 86.067-86.066 47.533 0 86.066 38.533 86.066 86.066z" fill="#2E3048"/><path d="M283.501 98.49c0 47.533-38.533 86.066-86.066 86.066-47.534 0-86.067-38.533-86.067-86.066s38.533-86.067 86.067-86.067c47.533 0 86.066 38.533 86.066 86.067zM627.766 347.478c0 95.066-77.066 172.133-172.133 172.133-95.066 0-172.133-77.067-172.133-172.133 0-95.066 77.067-172.133 172.133-172.133 95.067 0 172.133 77.067 172.133 172.133z" fill="#2E3048"/><path d="M515.5 227.004c0 71.156-57.683 128.838-128.838 128.838S257.824 298.16 257.824 227.004c0-71.155 57.683-128.837 128.838-128.837S515.5 155.849 515.5 227.004zM917.844 428.116c0 47.533-38.533 86.066-86.066 86.066-47.534 0-86.067-38.533-86.067-86.066s38.533-86.066 86.067-86.066c47.533 0 86.066 38.533 86.066 86.066zM1122.86 389.918c0 42.993-36.16 77.847-80.75 77.847-44.597 0-80.749-34.854-80.749-77.847 0-42.994 36.152-77.847 80.749-77.847 44.59 0 80.75 34.853 80.75 77.847zM1245.67 365.742c0 45.13 36.59 81.715 81.72 81.715 45.13 0 81.71-36.585 81.71-81.715s-36.58-81.715-81.71-81.715c-45.13 0-81.72 36.585-81.72 81.715z" fill="#2E3048"/><path d="M1366.55 361.39c0 31.511 25.54 57.056 57.06 57.056 31.51 0 57.05-25.545 57.05-57.056 0-31.51-25.54-57.055-57.05-57.055-31.52 0-57.06 25.545-57.06 57.055zM1758.2 398.138c0 44.862 36.37 81.231 81.23 81.231 44.86 0 81.23-36.369 81.23-81.231 0-44.863-36.37-81.231-81.23-81.231-44.86 0-81.23 36.368-81.23 81.231z" fill="#2E3048"/><path d="M1559.96 424.248c0 59.283 48.06 107.341 107.34 107.341s107.34-48.058 107.34-107.341c0-59.283-48.06-107.341-107.34-107.341s-107.34 48.058-107.34 107.341zM1379.12 348.819c0 43.794 35.5 79.297 79.3 79.297 43.79 0 79.3-35.503 79.3-79.297 0-43.795-35.51-79.297-79.3-79.297-43.8 0-79.3 35.502-79.3 79.297zM1839.43 413.127c0 41.925 33.99 75.912 75.91 75.912 41.93 0 75.92-33.987 75.92-75.912 0-41.925-33.99-75.913-75.92-75.913-41.92 0-75.91 33.988-75.91 75.913z" fill="#2E3048"/><path d="M1901.32 353.17c0 41.926 33.99 75.913 75.91 75.913 41.93 0 75.92-33.987 75.92-75.913 0-41.925-33.99-75.912-75.92-75.912-41.92 0-75.91 33.987-75.91 75.912z" fill="#2E3048"/><path d="M1951.61 300.95c0 89.993 72.95 162.946 162.94 162.946 90 0 162.95-72.953 162.95-162.946 0-89.992-72.95-162.946-162.95-162.946-89.99 0-162.94 72.954-162.94 162.946z" fill="#2E3048"/><path d="M2086.41 219.205c0 87.654 71.06 158.713 158.71 158.713 87.66 0 158.71-71.059 158.71-158.713 0-87.655-71.05-158.713-158.71-158.713-87.65 0-158.71 71.058-158.71 158.713zM1645.06 462.929c0 47.533 38.53 86.067 86.06 86.067 47.54 0 86.07-38.534 86.07-86.067 0-47.533-38.53-86.066-86.07-86.066-47.53 0-86.06 38.533-86.06 86.066zM1468.09 386.05c0 42.993 36.15 77.846 80.75 77.846 44.59 0 80.74-34.853 80.74-77.846 0-42.994-36.15-77.847-80.74-77.847-44.6 0-80.75 34.853-80.75 77.847z" fill="#2E3048"/><path d="M0 424h2560v193.799H0V424z" fill="#F7F7F7"/><path d="M1284.5 392.05c0 40.317-32.68 73-73 73s-73-32.683-73-73 32.68-73 73-73 73 32.683 73 73z" fill="#F7F7F7"/><path d="M1176.5 406.05c0 32.585-26.42 59-59 59s-59-26.415-59-59 26.42-59 59-59 59 26.415 59 59zM768.5 478.05c0 32.585-26.415 59-59 59s-59-26.415-59-59 26.415-59 59-59 59 26.415 59 59zM982.5 419.05c0 49.153-39.847 89-89 89-49.154 0-89-39.847-89-89 0-49.154 39.846-89 89-89 49.153 0 89 39.846 89 89z" fill="#F7F7F7"/><path d="M693.5 419.05c0 49.153-39.847 89-89 89-49.154 0-89-39.847-89-89s39.846-89 89-89c49.153 0 89 39.847 89 89zM350.713 138.005c0 49.153-39.847 88.999-89 88.999s-89-39.846-89-88.999c0-49.154 39.847-89 89-89s89 39.846 89 89z" fill="#F7F7F7"/><path d="M593 364.05c0 77.872-63.128 141-141 141s-141-63.128-141-141 63.128-141 141-141 141 63.128 141 141zM255.454 115.855c0 91.277-73.994 165.271-165.27 165.271-91.278 0-165.272-73.994-165.272-165.271 0-91.277 73.994-165.271 165.271-165.271 91.277 0 165.271 73.994 165.271 165.271z" fill="#F7F7F7"/><path d="M278.127 339.779c0 91.276-73.994 165.271-165.271 165.271-91.276 0-165.27-73.995-165.27-165.271 0-91.277 73.993-165.271 165.27-165.271 91.277 0 165.271 73.994 165.271 165.271z" fill="#F7F7F7"/><path d="M508.805 251.004c0 92.809-137.868 228.386-230.678 228.386-92.809 0-105.414-135.577-105.414-228.386 0-92.81 75.237-168.046 168.046-168.046s168.046 75.236 168.046 168.046z" fill="#F7F7F7"/><path d="M409.836 101.318c0 24.127-19.559 43.687-43.687 43.687-24.127 0-43.686-19.56-43.686-43.687s19.559-43.686 43.686-43.686c24.128 0 43.687 19.559 43.687 43.686zM894.5 481.05c0 49.153-39.847 89-89 89s-89-39.847-89-89 39.847-89 89-89 89 39.847 89 89zM1104.5 427.55c0 44.459-37.38 80.5-83.5 80.5-46.116 0-83.5-36.041-83.5-80.5s37.384-80.5 83.5-80.5c46.12 0 83.5 36.041 83.5 80.5zM1214.5 389.05c0 51.915 42.08 94 94 94 51.91 0 94-42.085 94-94s-42.09-94-94-94c-51.92 0-94 42.085-94 94z" fill="#F7F7F7"/><path d="M1350.84 367.193c0 32.585 26.41 59 59 59 32.58 0 58.99-26.415 58.99-59s-26.41-59-58.99-59c-32.59 0-59 26.415-59 59z" fill="#F7F7F7"/><path d="M1392.5 420.39c0 32.585 26.41 59 59 59 32.58 0 59-26.415 59-59s-26.42-59-59-59c-32.59 0-59 26.415-59 59zM1781.5 452.05c0 32.585 26.41 59 59 59 32.58 0 59-26.415 59-59s-26.42-59-59-59c-32.59 0-59 26.415-59 59zM1569.5 432.05c0 49.153 39.85 89 89 89s89-39.847 89-89c0-49.154-39.85-89-89-89s-89 39.846-89 89z" fill="#F7F7F7"/><path d="M1425.5 357.05c0 30.928 25.07 56 56 56s56-25.072 56-56-25.07-56-56-56-56 25.072-56 56zM1858.5 442.55c0 43.354 35.14 78.5 78.5 78.5 43.35 0 78.5-35.146 78.5-78.5 0-43.355-35.15-78.5-78.5-78.5-43.36 0-78.5 35.145-78.5 78.5z" fill="#F7F7F7"/><path d="M1922.5 380.55c0 43.354 35.14 78.5 78.5 78.5 43.35 0 78.5-35.146 78.5-78.5 0-43.355-35.15-78.5-78.5-78.5-43.36 0-78.5 35.145-78.5 78.5z" fill="#F7F7F7"/><path d="M1995.5 330.05c0 77.872 63.13 141 141 141s141-63.128 141-141-63.13-141-141-141-141 63.128-141 141z" fill="#F7F7F7"/><path d="M2102.5 230.722c0 87.655 71.06 158.712 158.71 158.712 87.66 0 158.71-71.057 158.71-158.712 0-87.654-71.05-158.712-158.71-158.712-87.65 0-158.71 71.058-158.71 158.712z" fill="#F7F7F7"/><path d="M2166.5 371.779c0 87.654 71.06 158.713 158.71 158.713 87.66 0 158.71-71.059 158.71-158.713s-71.05-158.712-158.71-158.712c-87.65 0-158.71 71.058-158.71 158.712z" fill="#F7F7F7"/><path d="M2261.21 153.359c0 87.654 71.06 158.712 158.71 158.712 87.66 0 158.72-71.058 158.72-158.712 0-87.654-71.06-158.712-158.72-158.712-87.65 0-158.71 71.058-158.71 158.712zM1657.5 494.05c0 49.153 39.85 89 89 89s89-39.847 89-89-39.85-89-89-89-89 39.847-89 89zM1451.5 413.55c0 44.459 37.38 80.5 83.5 80.5 46.11 0 83.5-36.041 83.5-80.5s-37.39-80.5-83.5-80.5c-46.12 0-83.5 36.041-83.5 80.5z" fill="#F7F7F7"/><path d="M2377.67 122.892c0 87.654 71.06 158.712 158.71 158.712 87.66 0 158.72-71.058 158.72-158.712 0-87.654-71.06-158.712-158.72-158.712-87.65 0-158.71 71.058-158.71 158.712z" fill="#F7F7F7"/><path d="M2316.23 364.05c0 87.654 71.06 158.712 158.72 158.712 87.65 0 158.71-71.058 158.71-158.712 0-87.655-71.06-158.713-158.71-158.713-87.66 0-158.72 71.058-158.72 158.713z" fill="#F7F7F7"/></g><defs><linearGradient id="prefix__paint0_linear_1_117" x1="200.907" y1="279.76" x2="2432.25" y2="279.76" gradientUnits="userSpaceOnUse"><stop stop-color="#662681"/><stop offset=".15" stop-color="#692581"/><stop offset=".26" stop-color="#722381"/><stop offset=".36" stop-color="#822080"/><stop offset=".43" stop-color="#931C80"/><stop offset=".62" stop-color="#B51C7B"/><stop offset=".87" stop-color="#D91D75"/><stop offset="1" stop-color="#E71D73"/></linearGradient></defs></svg>