<svg width="1312" height="517" fill="none" xmlns="http://www.w3.org/2000/svg"><g filter="url(#prefix__filter0_dddddd_1350_1107)"><g clip-path="url(#prefix__clip0_1350_1107)"><rect x="56" y="42.973" width="1200" height="404.027" rx="40" fill="#fff"/><path fill="#D9D9D9" d="M56 42.973h1200v286H56z"/><path fill="url(#prefix__paint0_linear_1350_1107)" d="M56 42.973h1200v286H56z"/><mask id="prefix__a" style="mask-type:alpha" maskUnits="userSpaceOnUse" x="-228" y="26" width="1719" height="317"><path fill="#D9D9D9" d="M-228 26.665h1718.63v316.127H-228z"/></mask><g mask="url(#prefix__a)"><path d="M-18.934 163.54a59.862 59.862 0 01-14.459 1.761c-32.998 0-59.75-26.75-59.75-59.749s26.752-59.75 59.75-59.75c25.925 0 47.993 16.511 56.263 39.59a66.985 66.985 0 0123.58-4.258c27.669 0 51.428 16.739 61.703 40.642 44.517 9.666 78.812 46.738 84.334 92.662 21.591 5.446 38.507 22.645 43.547 44.395 6.817-11.961 19.685-20.025 34.437-20.025a39.426 39.426 0 0122.657 7.116l.114-.057c11.854-28.58 40.027-48.682 72.895-48.682 26.728 0 50.351 13.293 64.619 33.628 9.653-7.592 21.98-12.145 35.411-12.145 7.861 0 15.345 1.56 22.136 4.377 6.937-11.476 19.533-19.147 33.921-19.147 13.158 0 24.817 6.416 32.02 16.29 8.641-7.631 19.994-12.262 32.428-12.262 12.731 0 24.328 4.855 33.042 12.813 10.39-13.122 26.461-21.54 44.499-21.54 16.863 0 32.008 7.358 42.399 19.039 9.273-17.324 27.544-29.109 48.567-29.109 20.844 0 38.981 11.583 48.327 28.664a58.126 58.126 0 0114.444-1.811c16.588 0 31.493 6.947 41.757 17.987 11.656-7.557 25.557-11.945 40.482-11.945 28.443 0 53.164 15.936 65.722 39.365 7.22-22.822 28.567-39.365 53.779-39.365 15.23 0 29.04 6.036 39.19 15.846 1.57-.415 3.17-.76 4.79-1.03 3.7-18.534 17.11-33.564 34.71-39.547 6.33-52.594 48.74-94.083 101.76-98.982 20.55-28.452 54-46.969 91.78-46.969 62.47 0 113.12 50.646 113.12 113.121 0 58.922-45.05 107.321-102.58 112.637-20.55 28.452-54 46.968-91.78 46.968-28.69 0-54.9-10.687-74.84-28.298a52.29 52.29 0 01-11.77 3.413c-4.81 24.144-26.12 42.34-51.68 42.34a52.49 52.49 0 01-31.84-10.699 56.198 56.198 0 01-20.86 3.986c-5.61 0-11.02-.818-16.13-2.339-4.369 28.692-29.149 50.675-59.062 50.675-13.769 0-26.451-4.657-36.554-12.482a75.54 75.54 0 01-7.755.398c-31.94 0-59.187-20.095-69.788-48.332a58.219 58.219 0 01-12.451 1.338c-20.628 0-38.653-10.741-48.386-26.738a55.122 55.122 0 01-14.385 1.899c-9.602 0-18.63-2.459-26.489-6.781a39.368 39.368 0 01-17.243-5.094c-10.168 15.253-27.528 25.301-47.234 25.301-17.509 0-33.164-7.931-43.57-20.397-8.81 8.474-20.782 13.684-33.971 13.684-19.65 0-36.599-11.565-44.412-28.26a39.422 39.422 0 01-21.072 5.421c-5.026 24.875-27.749 43.651-55.021 43.651-12.095 0-23.295-3.693-32.453-9.972-13.811 22.874-38.908 38.168-67.577 38.168-6.596 0-13.004-.81-19.128-2.335-8.074 4.071-17.199 6.363-26.859 6.363-26.677 0-49.271-17.483-56.949-41.617-13.382-2.483-24.402-11.692-29.419-23.989-8.5 22.64-30.346 38.752-55.956 38.752-13.668 0-26.265-4.589-36.332-12.311-16.423 10.054-35.736 15.85-56.403 15.85-59.744 0-108.176-48.432-108.176-108.175 0-16.81 3.835-32.725 10.676-46.916a66.694 66.694 0 01-6.525-17.032z" fill="url(#prefix__paint1_linear_1350_1107)"/><path d="M635.537 273.176c0 26.174-21.219 47.393-47.393 47.393s-47.393-21.219-47.393-47.393 21.219-47.392 47.393-47.392 47.393 21.218 47.393 47.392z" fill="#2E3048"/><path d="M564.123 260.192c0 21.154-17.149 38.303-38.303 38.303-21.155 0-38.304-17.149-38.304-38.303 0-21.155 17.149-38.304 38.304-38.304 21.154 0 38.303 17.149 38.303 38.304zM320.668 293.951c0 21.154-17.149 38.303-38.303 38.303-21.155 0-38.304-17.149-38.304-38.303 0-21.155 17.149-38.304 38.304-38.304 21.154 0 38.303 17.149 38.303 38.304z" fill="#2E3048"/><path d="M451.16 291.679c0 42.129-34.153 76.282-76.282 76.282-42.13 0-76.283-34.153-76.283-76.282 0-42.13 34.153-76.283 76.283-76.283 42.129 0 76.282 34.153 76.282 76.283zM250.554 288.108c0 31.911-25.869 57.78-57.78 57.78s-57.78-25.869-57.78-57.78 25.869-57.78 57.78-57.78 57.78 25.869 57.78 57.78zM22.418 109.639c0 31.911-25.87 57.78-57.78 57.78-31.911 0-57.78-25.869-57.78-57.78 0-31.91 25.869-57.78 57.78-57.78 31.91 0 57.78 25.87 57.78 57.78z" fill="#2E3048"/><path d="M-37.674 92.785c0 31.911-25.869 57.78-57.78 57.78s-57.78-25.869-57.78-57.78 25.869-57.78 57.78-57.78 57.78 25.869 57.78 57.78zM193.445 259.941c0 63.822-51.738 115.56-115.56 115.56s-115.56-51.738-115.56-115.56 51.738-115.56 115.56-115.56 115.56 51.738 115.56 115.56z" fill="#2E3048"/><path d="M118.076 179.062c0 47.769-38.724 86.494-86.494 86.494s-86.494-38.725-86.494-86.494 38.725-86.494 86.494-86.494c47.77 0 86.494 38.725 86.494 86.494zM388.187 314.076c0 31.911-25.869 57.78-57.78 57.78s-57.78-25.869-57.78-57.78c0-31.91 25.869-57.779 57.78-57.779s57.78 25.869 57.78 57.779zM525.82 288.433c0 28.863-24.271 52.261-54.21 52.261s-54.209-23.398-54.209-52.261c0-28.864 24.27-52.262 54.209-52.262 29.939 0 54.21 23.398 54.21 52.262zM608.27 272.202c0 30.298 24.561 54.859 54.858 54.859 30.298 0 54.859-24.561 54.859-54.859 0-30.297-24.561-54.858-54.859-54.858-30.297 0-54.858 24.561-54.858 54.858z" fill="#2E3048"/><path d="M689.422 269.281c0 21.154 17.149 38.303 38.303 38.303 21.155 0 38.304-17.149 38.304-38.303 0-21.155-17.149-38.304-38.304-38.304-21.154 0-38.303 17.149-38.303 38.304zM952.353 293.951c0 30.118 24.415 54.534 54.537 54.534 30.11 0 54.53-24.416 54.53-54.534s-24.42-54.534-54.53-54.534c-30.122 0-54.537 24.416-54.537 54.534z" fill="#2E3048"/><path d="M819.264 311.48c0 39.799 32.264 72.062 72.063 72.062s72.062-32.263 72.062-72.062-32.263-72.063-72.062-72.063-72.063 32.264-72.063 72.063zM697.861 260.841c0 29.401 23.835 53.235 53.236 53.235 29.401 0 53.235-23.834 53.235-53.235s-23.834-53.235-53.235-53.235-53.236 23.834-53.236 53.235zM1006.89 304.014c0 28.146 22.81 50.963 50.96 50.963 28.15 0 50.96-22.817 50.96-50.963 0-28.147-22.81-50.964-50.96-50.964-28.15 0-50.96 22.817-50.96 50.964z" fill="#2E3048"/><path d="M1048.44 263.762c0 28.147 22.81 50.964 50.96 50.964 28.15 0 50.96-22.817 50.96-50.964 0-28.146-22.81-50.963-50.96-50.963-28.15 0-50.96 22.817-50.96 50.963z" fill="#2E3048"/><path d="M1082.2 228.705c0 60.416 48.97 109.392 109.39 109.392 60.41 0 109.39-48.976 109.39-109.392S1252 119.313 1191.59 119.313c-60.42 0-109.39 48.976-109.39 109.392z" fill="#2E3048"/><path d="M1172.69 173.826c0 58.846 47.71 106.55 106.55 106.55 58.85 0 106.55-47.704 106.55-106.55s-47.7-106.55-106.55-106.55c-58.84 0-106.55 47.704-106.55 106.55zM876.395 337.448c0 31.911 25.869 57.78 57.78 57.78s57.78-25.869 57.78-57.78-25.869-57.78-57.78-57.78-57.78 25.869-57.78 57.78zM757.589 285.836c0 28.863 24.27 52.261 54.209 52.261 29.939 0 54.209-23.398 54.209-52.261 0-28.864-24.27-52.262-54.209-52.262-29.939 0-54.209 23.398-54.209 52.262z" fill="#2E3048"/><path d="M-228 311.313h1718.63v130.106H-228V311.313z" fill="#F7F7F7"/><path d="M634.338 289.864c0 27.066-21.942 49.008-49.008 49.008-27.066 0-49.008-21.942-49.008-49.008 0-27.067 21.942-49.008 49.008-49.008 27.066 0 49.008 21.941 49.008 49.008z" fill="#F7F7F7"/><path d="M561.833 299.262c0 21.876-17.733 39.61-39.609 39.61-21.875 0-39.609-17.734-39.609-39.61 0-21.875 17.734-39.609 39.609-39.609 21.876 0 39.609 17.734 39.609 39.609zM287.926 347.599c0 21.876-17.734 39.609-39.609 39.609-21.876 0-39.609-17.733-39.609-39.609 0-21.875 17.733-39.609 39.609-39.609 21.875 0 39.609 17.734 39.609 39.609zM431.593 307.99c0 32.999-26.751 59.749-59.75 59.749-32.998 0-59.749-26.75-59.749-59.749s26.751-59.749 59.749-59.749c32.999 0 59.75 26.75 59.75 59.749z" fill="#F7F7F7"/><path d="M237.575 307.99c0 32.999-26.751 59.749-59.749 59.749-32.999 0-59.749-26.75-59.749-59.749s26.75-59.749 59.749-59.749c32.998 0 59.749 26.75 59.749 59.749zM7.448 119.313c0 32.998-26.75 59.749-59.749 59.749s-59.749-26.751-59.749-59.749c0-33 26.75-59.75 59.749-59.75s59.75 26.75 59.75 59.75z" fill="#F7F7F7"/><path d="M170.106 271.066c0 52.279-42.381 94.659-94.66 94.659-52.278 0-94.659-42.38-94.659-94.659s42.38-94.659 94.66-94.659c52.278 0 94.659 42.38 94.659 94.659zM-56.503 104.443c0 61.278-49.675 110.953-110.953 110.953-61.278 0-110.953-49.675-110.953-110.953 0-61.278 49.675-110.953 110.953-110.953 61.278 0 110.953 49.675 110.953 110.953z" fill="#F7F7F7"/><path d="M-41.281 254.772c0 61.278-49.676 110.953-110.954 110.953-61.277 0-110.953-49.675-110.953-110.953 0-61.278 49.676-110.953 110.953-110.953 61.278 0 110.954 49.675 110.954 110.953z" fill="#F7F7F7"/><path d="M113.582 195.174c0 62.306-92.557 153.325-154.863 153.325-62.307 0-70.769-91.019-70.769-153.325 0-62.307 50.51-112.817 112.816-112.817 62.307 0 112.816 50.51 112.816 112.817z" fill="#F7F7F7"/><path d="M47.14 94.683c0 16.198-13.13 29.329-29.329 29.329-16.197 0-29.328-13.131-29.328-29.329 0-16.197 13.13-29.328 29.328-29.328S47.14 78.485 47.14 94.683zM372.515 349.613c0 32.999-26.751 59.75-59.749 59.75-32.999 0-59.75-26.751-59.75-59.75 0-32.998 26.751-59.749 59.75-59.749 32.998 0 59.749 26.751 59.749 59.749zM513.496 313.696c0 29.847-25.097 54.043-56.057 54.043-30.959 0-56.057-24.196-56.057-54.043 0-29.847 25.098-54.043 56.057-54.043 30.96 0 56.057 24.196 56.057 54.043zM587.343 287.85c0 34.852 28.254 63.106 63.106 63.106 34.853 0 63.106-28.254 63.106-63.106 0-34.853-28.253-63.106-63.106-63.106-34.852 0-63.106 28.253-63.106 63.106z" fill="#F7F7F7"/><path d="M678.871 273.176c0 21.876 17.734 39.609 39.61 39.609 21.875 0 39.609-17.733 39.609-39.609 0-21.875-17.734-39.609-39.609-39.609-21.876 0-39.61 17.734-39.61 39.609z" fill="#F7F7F7"/><path d="M706.842 308.89c0 21.875 17.734 39.609 39.609 39.609 21.876 0 39.609-17.734 39.609-39.609 0-21.876-17.733-39.609-39.609-39.609-21.875 0-39.609 17.733-39.609 39.609zM967.993 330.144c0 21.876 17.734 39.609 39.607 39.609 21.88 0 39.61-17.733 39.61-39.609 0-21.875-17.73-39.609-39.61-39.609-21.873 0-39.607 17.734-39.607 39.609zM825.669 316.717c0 32.999 26.751 59.75 59.75 59.75 32.998 0 59.749-26.751 59.749-59.75 0-32.998-26.751-59.749-59.749-59.749-32.999 0-59.75 26.751-59.75 59.749z" fill="#F7F7F7"/><path d="M728.996 266.367c0 20.763 16.832 37.595 37.595 37.595 20.763 0 37.595-16.832 37.595-37.595 0-20.763-16.832-37.595-37.595-37.595-20.763 0-37.595 16.832-37.595 37.595zM1019.69 323.766c0 29.106 23.59 52.701 52.7 52.701 29.1 0 52.7-23.595 52.7-52.701 0-29.105-23.6-52.7-52.7-52.7-29.11 0-52.7 23.595-52.7 52.7z" fill="#F7F7F7"/><path d="M1062.65 282.143c0 29.106 23.6 52.701 52.7 52.701 29.11 0 52.7-23.595 52.7-52.701 0-29.105-23.59-52.7-52.7-52.7-29.1 0-52.7 23.595-52.7 52.7z" fill="#F7F7F7"/><path d="M1111.66 248.241c0 52.278 42.38 94.659 94.66 94.659 52.28 0 94.66-42.381 94.66-94.659 0-52.279-42.38-94.66-94.66-94.66-52.28 0-94.66 42.381-94.66 94.66z" fill="#F7F7F7"/><path d="M1183.5 181.558c0 58.846 47.7 106.55 106.55 106.55 58.84 0 106.55-47.704 106.55-106.55s-47.71-106.55-106.55-106.55c-58.85 0-106.55 47.704-106.55 106.55z" fill="#F7F7F7"/><path d="M1226.46 276.255c0 58.846 47.7 106.55 106.55 106.55 58.85 0 106.55-47.704 106.55-106.55s-47.7-106.55-106.55-106.55c-58.85 0-106.55 47.704-106.55 106.55z" fill="#F7F7F7"/><path d="M1290.05 129.621c0 58.846 47.7 106.55 106.55 106.55 58.84 0 106.55-47.704 106.55-106.55s-47.71-106.55-106.55-106.55c-58.85 0-106.55 47.704-106.55 106.55zM884.747 358.341c0 32.998 26.751 59.749 59.75 59.749 32.998 0 59.753-26.751 59.753-59.749 0-32.999-26.755-59.75-59.753-59.75-32.999 0-59.75 26.751-59.75 59.75zM746.451 304.298c0 29.847 25.097 54.043 56.057 54.043 30.959 0 56.057-24.196 56.057-54.043 0-29.848-25.098-54.043-56.057-54.043-30.96 0-56.057 24.195-56.057 54.043z" fill="#F7F7F7"/><path d="M1368.23 109.167c0 58.846 47.7 106.55 106.55 106.55 58.84 0 106.55-47.704 106.55-106.55s-47.71-106.55-106.55-106.55c-58.85 0-106.55 47.704-106.55 106.55z" fill="#F7F7F7"/><path d="M1326.98 271.066c0 58.846 47.71 106.55 106.55 106.55 58.85 0 106.55-47.704 106.55-106.55s-47.7-106.55-106.55-106.55c-58.84 0-106.55 47.704-106.55 106.55z" fill="#F7F7F7"/></g><path d="M649.631 155.362c1.964-112.545 14.732-48.233 14.732 0 0 48.234 32.902 108.357 84.957 134.876H538.155s109.511-22.331 111.476-134.876z" fill="#F7F7F7"/><path d="M688.677 161.145a42.447 42.447 0 01-.839-2.373c-2.923-9.582-4.578-30.202-5.62-42.135-2.403-27-11.763-49.142-26.222-49.948v-.179c-14.46.784-23.82 22.948-26.222 49.926-1.065 11.955-2.697 32.552-5.621 42.134-.272.806-.544 1.612-.838 2.373-45.011 23.172 21.757 26.217 32.681 26.374v.179c10.924-.157 77.714-3.202 32.681-26.373v.022z" fill="#2E3048"/><path d="M676.665 196.743c3.944-7.072 6.799-17.021 6.799-22.596 0-1.405-.135-2.856-.362-4.238-.793-4.85-3.445-8.137-6.391-8.114h-.068c-2.969 0-5.598 3.264-6.391 8.114a26.707 26.707 0 00-.363 4.238c0 5.575 2.856 15.502 6.799 22.596h-.023z" fill="#C11C79"/><path d="M676.666 182.487c2.13-3.83 3.671-9.224 3.671-12.238 0-.771-.068-1.541-.181-2.289-.431-2.629-1.859-4.397-3.468-4.397h-.045c-1.609 0-3.037 1.768-3.468 4.397-.136.748-.181 1.541-.181 2.289 0 3.014 1.541 8.408 3.672 12.238z" fill="#FF438B"/><path d="M635.168 197.808c3.944-7.071 6.799-17.02 6.799-22.595 0-1.405-.136-2.856-.362-4.238-.793-4.85-3.445-8.137-6.391-8.114h-.068c-2.969 0-5.598 3.264-6.392 8.114a26.823 26.823 0 00-.362 4.238c0 5.575 2.855 15.502 6.799 22.595h-.023z" fill="#C11C79"/><path d="M635.168 182.488c2.131-3.83 3.672-9.224 3.672-12.239 0-.77-.068-1.541-.204-2.289-.431-2.629-1.859-4.397-3.468-4.397h-.045c-1.609 0-3.037 1.768-3.468 4.397a13.02 13.02 0 00-.204 2.289c0 3.015 1.542 8.409 3.672 12.239h.045z" fill="#FF438B"/><path d="M655.905 217.186c6.301-10.403 10.856-24.976 10.856-33.157 0-2.085-.204-4.193-.567-6.233-1.291-7.116-5.507-11.944-10.244-11.921h-.113c-4.737-.023-8.952 4.782-10.244 11.921a35.785 35.785 0 00-.567 6.233c0 8.181 4.556 22.777 10.856 33.157h.023z" fill="#C11C79"/><path d="M655.905 196.494c2.855-4.555 4.918-10.969 4.918-14.573 0-.906-.091-1.835-.249-2.742-.59-3.127-2.493-5.258-4.624-5.235h-.045c-2.131 0-4.057 2.108-4.624 5.235a16.097 16.097 0 00-.249 2.742c0 3.604 2.063 9.995 4.918 14.573h-.045z" fill="#FF438B"/><path d="M656.041 69.622c-13.349 0-21.1 28.058-22.891 48.659-.77 8.952-1.881 25.066-3.24 32.454-.794 4.397-3.513 11.604-3.717 12.171-12.171 7.524-15.004 10.992-14.301 11.853.317.363 4.963-.567 10.38-1.7 4.215-.884 8.975-1.745 12.057-3.286 12.034-5.983 10.312-18.562 12.374-18.63 2.357-.068.952 3.785 2.697 8.001 2.335 5.666 8.454 12.011 22.981 9.836-4.034-3.513-4.895-17.701-2.357-17.701 1.904 0 .318 7.411 8.205 14.981 7.229 6.958 22.074 9.02 22.187 8.476.499-2.742-10.017-8.295-14.64-11.762-3.196-7.547-5.53-39.82-6.074-44.806-2.539-23.276-9.836-48.569-23.639-48.569l-.022.023z" fill="#fff"/><path d="M656.041 69.622c13.802 0 21.123 25.293 23.638 48.568.544 4.964 2.879 37.26 6.074 44.807 4.624 3.467 15.117 8.997 14.641 11.762 0 .045-.159.091-.453.091-2.561 0-15.208-2.312-21.712-8.567-7.887-7.592-6.301-14.981-8.204-14.981-2.539 0-1.678 14.188 2.357 17.701a37.94 37.94 0 01-5.53.43c-10.607 0-15.434-5.394-17.451-10.289-1.723-4.193-.386-8.001-2.652-8.001h-.068c-2.063.068-.34 12.647-12.375 18.63-3.082 1.541-7.819 2.38-12.057 3.286-4.578.975-8.635 1.791-9.949 1.791-.227 0-.385-.023-.431-.091-.702-.838 2.131-4.329 14.301-11.853.227-.589 2.924-7.774 3.717-12.17 1.337-7.389 2.448-23.48 3.241-32.455 1.836-20.624 9.564-48.659 22.913-48.659zm0-3.649c-17.36 0-24.839 32.681-26.517 51.991-.158 1.904-.34 4.102-.544 6.482-.725 8.884-1.631 19.966-2.651 25.61-.544 2.991-2.199 7.841-3.128 10.38-14.301 8.974-14.754 11.762-15.003 13.281-.204 1.223.113 2.425.884 3.354.77.929 1.858 1.405 3.241 1.405 1.382 0 4.011-.453 10.697-1.881l1.586-.34c4.035-.839 8.227-1.7 11.332-3.264 5.847-2.901 8.952-7.184 10.743-11.06 2.357 4.692 7.864 11.106 20.171 11.106 1.903 0 3.943-.159 6.051-.476l6.255-.929c7.66 5.054 18.176 6.821 20.783 6.821 3.399 0 3.988-2.787 4.056-3.105.771-4.351-4.26-7.592-11.241-12.102-1.45-.929-2.833-1.813-3.943-2.606-2.289-7.026-4.284-29.554-5.054-38.279-.182-2.131-.34-3.763-.431-4.601-1.7-15.548-7.751-51.787-27.287-51.787z" fill="#2E3048"/><path d="M647.519 114.451c2.566 0 4.646-3.622 4.646-8.091 0-4.469-2.08-8.091-4.646-8.091s-4.646 3.622-4.646 8.091c0 4.469 2.08 8.091 4.646 8.091zM664.699 114.451c2.566 0 4.646-3.622 4.646-8.091 0-4.469-2.08-8.091-4.646-8.091s-4.646 3.622-4.646 8.091c0 4.469 2.08 8.091 4.646 8.091z" fill="#2E3048"/><path d="M669.571 79.957c-3.558-6.324-8.023-10.335-13.53-10.335-5.122 0-14.659 5.598-20.325 32.794 6.799-12.465 12.465-27.196 20.687-26.222 4.669 0 9.066 1.337 13.145 3.74l.023.023zM649.423 150.373c-.793 3.604-1.065 6.459.748 10.335 1.564 2.901 4.239 5.756 8.59 7.365-6.595-6.572-7.252-10.244-9.315-17.7h-.023zM635.395 169.161c1.088-3.694 2.267-10.992 2.108-14.912-.204 1.405-4.193 9.586-4.193 9.586s-4.329 4.918-10.131 8.998c3.989-.839 8.273-1.677 11.128-3.082.386-.182.748-.386 1.088-.59zM671.225 148.854c0 2.765.318 8.114 2.879 12.284.974 1.632 2.289 3.377 4.102 5.122 5.371 5.168 14.958 7.638 19.559 8.34-16.432-8.136-21.622-14.98-26.54-25.746z" fill="#E2E0E7"/><path d="M656.404 122.701c1.064 0 1.926-1.096 1.926-2.448 0-1.352-.862-2.448-1.926-2.448s-1.927 1.096-1.927 2.448c0 1.352.863 2.448 1.927 2.448z" fill="#2E3048"/><path fill="#F7F7F7" d="M4.564 328.973h1351.92V447H4.564z"/><path d="M629.344 276.973v23.069c0 1.18.068 2.27.181 3.224h-4.041a13.767 13.767 0 01-.182-2.294c-.431.795-1.112 1.454-2.043 1.953-.931.5-1.976.772-3.156.772-2.521 0-4.564-.885-6.131-2.656-1.566-1.771-2.361-3.997-2.361-6.676 0-2.679.795-4.791 2.384-6.584 1.589-1.794 3.61-2.679 6.04-2.679 1.407 0 2.543.249 3.405.772.863.522 1.453 1.112 1.794 1.771v-10.672h4.11zm-13.51 17.392c0 1.703.432 3.065 1.317 4.087.863 1.022 2.021 1.544 3.451 1.544 1.431 0 2.498-.522 3.383-1.567.886-1.044 1.317-2.406 1.317-4.109 0-1.703-.431-2.997-1.271-3.996-.84-.999-1.976-1.499-3.383-1.499-1.408 0-2.543.5-3.452 1.499-.885.999-1.339 2.338-1.339 4.019l-.023.022zM652.843 303.266l-2.43-6.471h-10.898l-2.407 6.471h-4.609l10.036-25.748h5.04l10.036 25.748h-4.768zm-7.879-21.025l-3.928 10.535h7.856l-3.928-10.535zM664.763 310.168h-4.178v-24.59h4.064v2.407c.454-.795 1.181-1.453 2.18-1.998.999-.522 2.134-.795 3.451-.795 2.543 0 4.541.863 5.994 2.589 1.453 1.725 2.18 3.95 2.18 6.629 0 2.68-.772 4.905-2.293 6.676-1.522 1.748-3.542 2.634-6.04 2.634-1.203 0-2.293-.228-3.224-.682-.954-.454-1.657-1.044-2.134-1.748v8.9-.022zm9.49-15.758c0-1.634-.431-2.974-1.316-3.973-.863-.999-2.021-1.499-3.452-1.499-1.43 0-2.543.5-3.428 1.499-.886.999-1.317 2.339-1.317 3.973 0 1.635.431 3.02 1.317 4.042.885 1.022 2.021 1.521 3.428 1.521 1.408 0 2.543-.499 3.429-1.521.885-1.022 1.317-2.361 1.317-4.042h.022zM686.698 310.168h-4.178v-24.59h4.064v2.407c.454-.795 1.181-1.453 2.18-1.998.999-.522 2.134-.795 3.451-.795 2.543 0 4.541.863 5.994 2.589 1.453 1.725 2.18 3.95 2.18 6.629 0 2.68-.772 4.905-2.294 6.676-1.521 1.748-3.542 2.634-6.039 2.634-1.203 0-2.293-.228-3.224-.682-.954-.454-1.658-1.044-2.134-1.748v8.9-.022zm9.49-15.758c0-1.634-.431-2.974-1.317-3.973-.862-.999-2.02-1.499-3.451-1.499-1.43 0-2.543.5-3.428 1.499-.886.999-1.317 2.339-1.317 3.973 0 1.635.431 3.02 1.317 4.042.885 1.022 2.02 1.521 3.428 1.521s2.543-.499 3.429-1.521c.885-1.022 1.317-2.361 1.317-4.042h.022z" fill="#2E3048"/><path fill-rule="evenodd" clip-rule="evenodd" d="M564.215 314.731c-6.888 0-12.781 2.342-17.698 7.025s-7.376 10.829-7.376 18.458c0 7.63 2.459 13.718 7.376 18.4 4.917 4.683 10.81 7.025 17.698 7.025s12.858-2.342 17.775-7.025c4.917-4.682 7.376-10.809 7.376-18.4 0-7.59-2.459-13.775-7.376-18.458-4.917-4.683-10.829-7.025-17.775-7.025zm10.751 37.444c-3.024 2.83-6.615 4.235-10.751 4.235-4.137 0-7.649-1.405-10.674-4.235-3.024-2.829-4.546-6.829-4.546-12.019s1.522-9.19 4.546-12.02c3.025-2.829 6.596-4.234 10.674-4.234 4.078 0 7.707 1.405 10.751 4.234 3.024 2.83 4.546 6.83 4.546 12.02 0 5.19-1.522 9.19-4.546 12.019zm-49.6-12.779c2.068-.683 3.766-1.991 5.093-3.883 1.326-1.893 1.99-4.098 1.99-6.576 0-3.902-1.327-7.063-3.961-9.502-2.634-2.439-6.283-3.649-10.927-3.649H500v48.839h18.868c4.547 0 8.195-1.268 10.947-3.824 2.751-2.557 4.136-5.815 4.136-9.815 0-2.946-.819-5.444-2.439-7.551-1.639-2.088-3.688-3.434-6.166-4.039h.02zm-15.961-15.63h6.654c2.243 0 3.98.547 5.209 1.62 1.21 1.073 1.834 2.556 1.834 4.449 0 1.892-.624 3.375-1.853 4.468-1.249 1.112-2.947 1.659-5.093 1.659h-6.751v-12.196zm13.112 31.239c-1.307 1.132-3.102 1.698-5.405 1.698h-7.707v-12.878h7.844c2.302 0 4.078.605 5.346 1.795 1.268 1.19 1.893 2.771 1.893 4.761 0 1.99-.644 3.532-1.971 4.644v-.02zm79.59-33.249c4.917-4.683 10.809-7.025 17.697-7.025 6.947 0 12.859 2.342 17.776 7.025s7.376 10.868 7.376 18.458c0 7.591-2.459 13.718-7.376 18.4-4.917 4.683-10.888 7.025-17.776 7.025s-12.78-2.342-17.697-7.025c-4.917-4.682-7.376-10.77-7.376-18.4 0-7.629 2.459-13.775 7.376-18.458zm17.697 34.654c4.137 0 7.727-1.405 10.752-4.235 3.024-2.829 4.546-6.829 4.546-12.019s-1.522-9.19-4.546-12.02c-3.044-2.829-6.674-4.234-10.752-4.234s-7.649 1.405-10.673 4.234c-3.024 2.83-4.546 6.83-4.546 12.02 0 5.19 1.522 9.19 4.546 12.019 3.024 2.83 6.537 4.235 10.673 4.235zm53.191-20.254l-6.829-1.307c-3.532-.683-5.307-2.518-5.307-5.503 0-1.697.721-3.161 2.126-4.371 1.405-1.209 3.259-1.834 5.503-1.834 2.751 0 4.839.722 6.263 2.127 1.425 1.424 2.303 3.005 2.615 4.761l8.546-2.615a16.916 16.916 0 00-1.58-4.331c-.742-1.386-1.776-2.713-3.103-4.039-1.327-1.327-3.102-2.361-5.307-3.142-2.205-.78-4.702-1.171-7.512-1.171-4.683 0-8.683 1.464-12.02 4.41-3.336 2.947-4.995 6.576-4.995 10.888 0 3.629 1.151 6.654 3.434 9.093 2.303 2.439 5.425 4.058 9.366 4.897l6.829 1.386c1.874.37 3.337 1.073 4.371 2.107 1.034 1.034 1.542 2.263 1.542 3.688 0 1.795-.703 3.239-2.108 4.332-1.405 1.092-3.336 1.658-5.814 1.658-3.259 0-5.795-.878-7.61-2.615-1.815-1.736-2.829-3.922-3.064-6.536l-8.819 2.341c.176 1.834.702 3.61 1.541 5.347.859 1.717 2.03 3.356 3.552 4.897 1.522 1.542 3.512 2.771 5.99 3.688 2.478.917 5.249 1.385 8.332 1.385 5.365 0 9.658-1.502 12.839-4.507 3.18-3.005 4.78-6.537 4.78-10.576 0-3.531-1.19-6.614-3.59-9.229-2.4-2.614-5.737-4.332-10.049-5.171l.078-.058zm32.508-11.376h-15.435v-9.014h40.43v9.014h-15.415v39.825h-9.58V324.78zm31.686 39.824h30.575v-8.956h-21.073v-11.297h19.083v-8.469h-19.083v-11.161h21.073v-8.956h-30.575v48.839zm71.943-25.034c-1.854 2.439-4.391 4.137-7.61 5.054L812 364.604h-10.615l-9.58-18.809h-4.956v18.809h-9.581v-48.839h19.083c4.683 0 8.449 1.425 11.298 4.274 2.848 2.848 4.273 6.439 4.273 10.751 0 3.395-.937 6.322-2.79 8.78zm-14.576-1.97c2.4 0 4.273-.605 5.619-1.854v-.02c1.347-1.248 2.03-2.829 2.03-4.897 0-2.069-.683-3.708-2.03-4.956-1.365-1.23-3.239-1.854-5.619-1.854h-7.707V337.6h7.707z" fill="url(#prefix__paint2_linear_1350_1107)"/><path d="M418.418 407.698v-17.28h6.672c.968 0 1.812.2 2.532.6.72.4 1.28.94 1.68 1.62.4.672.6 1.416.6 2.232 0 .928-.248 1.756-.744 2.484a3.848 3.848 0 01-1.992 1.5l-.024-.588c1.12.32 2 .88 2.64 1.68.64.8.96 1.768.96 2.904 0 1-.212 1.864-.636 2.592a4.289 4.289 0 01-1.788 1.668c-.768.392-1.66.588-2.676.588h-7.224zm1.776-1.692h5.016c.704 0 1.336-.124 1.896-.372.56-.256 1-.616 1.32-1.08.328-.464.492-1.024.492-1.68a3.39 3.39 0 00-.444-1.728c-.296-.512-.7-.92-1.212-1.224-.504-.312-1.08-.468-1.728-.468h-5.34v6.552zm0-8.22h4.884c.552 0 1.056-.124 1.512-.372a2.88 2.88 0 001.08-1.044c.272-.44.408-.948.408-1.524 0-.816-.284-1.48-.852-1.992-.56-.512-1.276-.768-2.148-.768h-4.884v5.7zm18.355 10.272c-1.288 0-2.388-.292-3.3-.876-.912-.584-1.612-1.392-2.1-2.424s-.732-2.216-.732-3.552c0-1.36.248-2.552.744-3.576s1.2-1.82 2.112-2.388c.92-.576 2.012-.864 3.276-.864 1.296 0 2.4.292 3.312.876.92.576 1.62 1.38 2.1 2.412.488 1.024.732 2.204.732 3.54 0 1.36-.244 2.556-.732 3.588-.488 1.024-1.192 1.824-2.112 2.4-.92.576-2.02.864-3.3.864zm0-1.692c1.44 0 2.512-.476 3.216-1.428.704-.96 1.056-2.204 1.056-3.732 0-1.568-.356-2.816-1.068-3.744-.704-.928-1.772-1.392-3.204-1.392-.968 0-1.768.22-2.4.66-.624.432-1.092 1.036-1.404 1.812-.304.768-.456 1.656-.456 2.664 0 1.56.36 2.812 1.08 3.756.72.936 1.78 1.404 3.18 1.404zm14.203 1.692c-1.288 0-2.388-.292-3.3-.876-.912-.584-1.612-1.392-2.1-2.424s-.732-2.216-.732-3.552c0-1.36.248-2.552.744-3.576s1.2-1.82 2.112-2.388c.92-.576 2.012-.864 3.276-.864 1.296 0 2.4.292 3.312.876.92.576 1.62 1.38 2.1 2.412.488 1.024.732 2.204.732 3.54 0 1.36-.244 2.556-.732 3.588-.488 1.024-1.192 1.824-2.112 2.4-.92.576-2.02.864-3.3.864zm0-1.692c1.44 0 2.512-.476 3.216-1.428.704-.96 1.056-2.204 1.056-3.732 0-1.568-.356-2.816-1.068-3.744-.704-.928-1.772-1.392-3.204-1.392-.968 0-1.768.22-2.4.66-.624.432-1.092 1.036-1.404 1.812-.304.768-.456 1.656-.456 2.664 0 1.56.36 2.812 1.08 3.756.72.936 1.78 1.404 3.18 1.404zm13.51 1.68c-1.52 0-2.772-.328-3.756-.984-.976-.656-1.576-1.568-1.8-2.736l1.8-.3c.192.736.628 1.324 1.308 1.764.688.432 1.536.648 2.544.648.984 0 1.76-.204 2.328-.612.568-.416.852-.98.852-1.692 0-.4-.092-.724-.276-.972-.176-.256-.54-.492-1.092-.708-.552-.216-1.376-.472-2.472-.768-1.176-.32-2.096-.64-2.76-.96-.664-.32-1.136-.688-1.416-1.104-.28-.424-.42-.94-.42-1.548 0-.736.208-1.38.624-1.932.416-.56.992-.992 1.728-1.296.736-.312 1.592-.468 2.568-.468s1.848.16 2.616.48c.776.312 1.4.752 1.872 1.32.472.568.752 1.228.84 1.98l-1.8.324c-.12-.76-.5-1.36-1.14-1.8-.632-.448-1.436-.68-2.412-.696-.92-.024-1.668.152-2.244.528-.576.368-.864.86-.864 1.476 0 .344.104.64.312.888.208.24.584.468 1.128.684.552.216 1.336.452 2.352.708 1.192.304 2.128.624 2.808.96.68.336 1.164.732 1.452 1.188.288.456.432 1.02.432 1.692 0 1.224-.456 2.188-1.368 2.892-.904.696-2.152 1.044-3.744 1.044zm14.829-.348a8.636 8.636 0 01-2.16.18c-.704-.032-1.336-.184-1.896-.456a2.736 2.736 0 01-1.26-1.272 3.738 3.738 0 01-.384-1.452 53.052 53.052 0 01-.024-1.692v-11.868h1.752v11.796c0 .544.004 1 .012 1.368.016.36.1.68.252.96.288.536.744.856 1.368.96.632.104 1.412.08 2.34-.072v1.548zm-8.496-11.448v-1.512h8.496v1.512h-8.496zm20.882 11.808c-1.208 0-2.24-.3-3.096-.9-.856-.608-1.512-1.428-1.968-2.46-.456-1.032-.684-2.196-.684-3.492 0-1.288.224-2.448.672-3.48.456-1.032 1.108-1.848 1.956-2.448.848-.6 1.864-.9 3.048-.9 1.216 0 2.24.296 3.072.888.832.592 1.46 1.404 1.884 2.436.432 1.024.648 2.192.648 3.504 0 1.288-.212 2.452-.636 3.492-.424 1.032-1.048 1.852-1.872 2.46-.824.6-1.832.9-3.024.9zm.18-1.644c.92 0 1.68-.224 2.28-.672.6-.448 1.048-1.064 1.344-1.848.296-.792.444-1.688.444-2.688 0-1.016-.148-1.912-.444-2.688-.296-.784-.744-1.396-1.344-1.836-.592-.44-1.34-.66-2.244-.66-.928 0-1.696.228-2.304.684-.608.456-1.06 1.076-1.356 1.86-.288.784-.432 1.664-.432 2.64 0 .984.148 1.872.444 2.664.304.784.756 1.404 1.356 1.86.6.456 1.352.684 2.256.684zm4.068 1.284v-9.756h-.192v-7.524h1.776v17.28h-1.584zm3.751 0l5.952-17.28h2.34l5.952 17.28h-1.836l-5.652-16.296h.696l-5.616 16.296h-1.836zm2.652-4.188v-1.656h8.928v1.656h-8.928zm19.579 4.548c-1.192 0-2.2-.3-3.024-.9-.824-.608-1.448-1.428-1.872-2.46-.424-1.04-.636-2.204-.636-3.492 0-1.312.212-2.48.636-3.504.432-1.032 1.064-1.844 1.896-2.436.832-.592 1.856-.888 3.072-.888 1.184 0 2.2.3 3.048.9.848.6 1.496 1.416 1.944 2.448.456 1.032.684 2.192.684 3.48 0 1.296-.228 2.46-.684 3.492-.456 1.032-1.112 1.852-1.968 2.46-.856.6-1.888.9-3.096.9zm-5.832 5.4v-18.72h1.584v9.756h.192v8.964h-1.776zm5.652-7.044c.904 0 1.656-.228 2.256-.684.6-.456 1.048-1.076 1.344-1.86.304-.792.456-1.68.456-2.664 0-.976-.148-1.856-.444-2.64-.296-.784-.748-1.404-1.356-1.86-.6-.456-1.364-.684-2.292-.684-.904 0-1.656.22-2.256.66-.592.44-1.036 1.052-1.332 1.836-.296.776-.444 1.672-.444 2.688 0 1 .148 1.896.444 2.688.296.784.744 1.4 1.344 1.848.6.448 1.36.672 2.28.672zm14.383 1.644c-1.192 0-2.2-.3-3.024-.9-.824-.608-1.448-1.428-1.872-2.46-.424-1.04-.636-2.204-.636-3.492 0-1.312.212-2.48.636-3.504.432-1.032 1.064-1.844 1.896-2.436.832-.592 1.856-.888 3.072-.888 1.184 0 2.2.3 3.048.9.848.6 1.496 1.416 1.944 2.448.456 1.032.684 2.192.684 3.48 0 1.296-.228 2.46-.684 3.492-.456 1.032-1.112 1.852-1.968 2.46-.856.6-1.888.9-3.096.9zm-5.832 5.4v-18.72h1.584v9.756h.192v8.964h-1.776zm5.652-7.044c.904 0 1.656-.228 2.256-.684.6-.456 1.048-1.076 1.344-1.86.304-.792.456-1.68.456-2.664 0-.976-.148-1.856-.444-2.64-.296-.784-.748-1.404-1.356-1.86-.6-.456-1.364-.684-2.292-.684-.904 0-1.656.22-2.256.66-.592.44-1.036 1.052-1.332 1.836-.296.776-.444 1.672-.444 2.688 0 1 .148 1.896.444 2.688.296.784.744 1.4 1.344 1.848.6.448 1.36.672 2.28.672zm18.396 1.644c-1.208 0-2.24-.3-3.096-.9-.856-.608-1.512-1.428-1.968-2.46-.456-1.032-.684-2.196-.684-3.492 0-1.288.224-2.448.672-3.48.456-1.032 1.108-1.848 1.956-2.448.848-.6 1.864-.9 3.048-.9 1.216 0 2.24.296 3.072.888.832.592 1.46 1.404 1.884 2.436.432 1.024.648 2.192.648 3.504 0 1.288-.212 2.452-.636 3.492-.424 1.032-1.048 1.852-1.872 2.46-.824.6-1.832.9-3.024.9zm.18-1.644c.92 0 1.68-.224 2.28-.672.6-.448 1.048-1.064 1.344-1.848.296-.792.444-1.688.444-2.688 0-1.016-.148-1.912-.444-2.688-.296-.784-.744-1.396-1.344-1.836-.592-.44-1.34-.66-2.244-.66-.928 0-1.696.228-2.304.684-.608.456-1.06 1.076-1.356 1.86-.288.784-.432 1.664-.432 2.64 0 .984.148 1.872.444 2.664.304.784.756 1.404 1.356 1.86.6.456 1.352.684 2.256.684zm4.068 1.284v-9.756h-.192v-7.524h1.776v17.28h-1.584zm10.434.36c-1.264 0-2.36-.28-3.288-.84-.92-.56-1.636-1.348-2.148-2.364-.512-1.016-.768-2.208-.768-3.576 0-1.416.252-2.64.756-3.672s1.212-1.828 2.124-2.388c.92-.56 2.004-.84 3.252-.84 1.28 0 2.372.296 3.276.888.904.584 1.588 1.424 2.052 2.52.464 1.096.676 2.404.636 3.924h-1.8v-.624c-.032-1.68-.396-2.948-1.092-3.804-.688-.856-1.696-1.284-3.024-1.284-1.392 0-2.46.452-3.204 1.356-.736.904-1.104 2.192-1.104 3.864 0 1.632.368 2.9 1.104 3.804.744.896 1.796 1.344 3.156 1.344.928 0 1.736-.212 2.424-.636.696-.432 1.244-1.052 1.644-1.86l1.644.636c-.512 1.128-1.268 2.004-2.268 2.628-.992.616-2.116.924-3.372.924zm-4.956-6.348v-1.476h9.9v1.476h-9.9zm16.547 5.988l-4.704-12.96h1.788l3.828 10.656 3.804-10.656h1.812l-4.704 12.96h-1.824zm13.698.36c-1.264 0-2.36-.28-3.288-.84-.92-.56-1.636-1.348-2.148-2.364-.512-1.016-.768-2.208-.768-3.576 0-1.416.252-2.64.756-3.672s1.212-1.828 2.124-2.388c.92-.56 2.004-.84 3.252-.84 1.28 0 2.372.296 3.276.888.904.584 1.588 1.424 2.052 2.52.464 1.096.676 2.404.636 3.924h-1.8v-.624c-.032-1.68-.396-2.948-1.092-3.804-.688-.856-1.696-1.284-3.024-1.284-1.392 0-2.46.452-3.204 1.356-.736.904-1.104 2.192-1.104 3.864 0 1.632.368 2.9 1.104 3.804.744.896 1.796 1.344 3.156 1.344.928 0 1.736-.212 2.424-.636.696-.432 1.244-1.052 1.644-1.86l1.644.636c-.512 1.128-1.268 2.004-2.268 2.628-.992.616-2.116.924-3.372.924zm-4.956-6.348v-1.476h9.9v1.476h-9.9zm13.752 5.988v-17.64h1.764v17.64h-1.764zm10.773.36c-1.288 0-2.388-.292-3.3-.876-.912-.584-1.612-1.392-2.1-2.424s-.732-2.216-.732-3.552c0-1.36.248-2.552.744-3.576s1.2-1.82 2.112-2.388c.92-.576 2.012-.864 3.276-.864 1.296 0 2.4.292 3.312.876.92.576 1.62 1.38 2.1 2.412.488 1.024.732 2.204.732 3.54 0 1.36-.244 2.556-.732 3.588-.488 1.024-1.192 1.824-2.112 2.4-.92.576-2.02.864-3.3.864zm0-1.692c1.44 0 2.512-.476 3.216-1.428.704-.96 1.056-2.204 1.056-3.732 0-1.568-.356-2.816-1.068-3.744-.704-.928-1.772-1.392-3.204-1.392-.968 0-1.768.22-2.4.66-.624.432-1.092 1.036-1.404 1.812-.304.768-.456 1.656-.456 2.664 0 1.56.36 2.812 1.08 3.756.72.936 1.78 1.404 3.18 1.404zm14.611 1.692c-1.192 0-2.2-.3-3.024-.9-.824-.608-1.448-1.428-1.872-2.46-.424-1.04-.636-2.204-.636-3.492 0-1.312.212-2.48.636-3.504.432-1.032 1.064-1.844 1.896-2.436.832-.592 1.856-.888 3.072-.888 1.184 0 2.2.3 3.048.9.848.6 1.496 1.416 1.944 2.448.456 1.032.684 2.192.684 3.48 0 1.296-.228 2.46-.684 3.492-.456 1.032-1.112 1.852-1.968 2.46-.856.6-1.888.9-3.096.9zm-5.832 5.4v-18.72h1.584v9.756h.192v8.964h-1.776zm5.652-7.044c.904 0 1.656-.228 2.256-.684.6-.456 1.048-1.076 1.344-1.86.304-.792.456-1.68.456-2.664 0-.976-.148-1.856-.444-2.64-.296-.784-.748-1.404-1.356-1.86-.6-.456-1.364-.684-2.292-.684-.904 0-1.656.22-2.256.66-.592.44-1.036 1.052-1.332 1.836-.296.776-.444 1.672-.444 2.688 0 1 .148 1.896.444 2.688.296.784.744 1.4 1.344 1.848.6.448 1.36.672 2.28.672zm24.019 1.284l.012-8.508c0-1-.28-1.784-.84-2.352-.552-.576-1.256-.864-2.112-.864a3.25 3.25 0 00-1.428.336c-.464.224-.848.584-1.152 1.08-.296.496-.444 1.144-.444 1.944l-1.044-.3c-.024-.928.156-1.74.54-2.436a4.173 4.173 0 011.608-1.62c.688-.392 1.464-.588 2.328-.588 1.304 0 2.348.404 3.132 1.212.784.8 1.176 1.884 1.176 3.252l-.012 8.844h-1.764zm-15.468 0v-12.96h1.584v3.192h.192v9.768h-1.776zm7.752 0l.012-8.388c0-1.032-.276-1.844-.828-2.436-.544-.6-1.264-.9-2.16-.9-.896 0-1.62.308-2.172.924-.552.608-.828 1.42-.828 2.436l-1.056-.576c0-.832.196-1.576.588-2.232a4.185 4.185 0 011.608-1.56c.68-.384 1.452-.576 2.316-.576.824 0 1.556.176 2.196.528a3.759 3.759 0 011.524 1.536c.368.672.552 1.488.552 2.448l-.012 8.796h-1.74zm18.018.36c-1.264 0-2.36-.28-3.288-.84-.92-.56-1.636-1.348-2.148-2.364-.512-1.016-.768-2.208-.768-3.576 0-1.416.252-2.64.756-3.672s1.212-1.828 2.124-2.388c.92-.56 2.004-.84 3.252-.84 1.28 0 2.372.296 3.276.888.904.584 1.588 1.424 2.052 2.52.464 1.096.676 2.404.636 3.924h-1.8v-.624c-.032-1.68-.396-2.948-1.092-3.804-.688-.856-1.696-1.284-3.024-1.284-1.392 0-2.46.452-3.204 1.356-.736.904-1.104 2.192-1.104 3.864 0 1.632.368 2.9 1.104 3.804.744.896 1.796 1.344 3.156 1.344.928 0 1.736-.212 2.424-.636.696-.432 1.244-1.052 1.644-1.86l1.644.636c-.512 1.128-1.268 2.004-2.268 2.628-.992.616-2.116.924-3.372.924zm-4.956-6.348v-1.476h9.9v1.476h-9.9zm22.519 5.988v-6.612c0-.72-.068-1.38-.204-1.98a4.566 4.566 0 00-.66-1.584 3.017 3.017 0 00-1.164-1.056c-.472-.248-1.048-.372-1.728-.372-.624 0-1.176.108-1.656.324a3.262 3.262 0 00-1.2.936c-.32.4-.564.888-.732 1.464-.168.576-.252 1.232-.252 1.968l-1.248-.276c0-1.328.232-2.444.696-3.348.464-.904 1.104-1.588 1.92-2.052.816-.464 1.752-.696 2.808-.696.776 0 1.452.12 2.028.36.584.24 1.076.564 1.476.972.408.408.736.876.984 1.404.248.52.428 1.076.54 1.668.112.584.168 1.168.168 1.752v7.128h-1.776zm-9.372 0v-12.96h1.596v3.192h.18v9.768h-1.776zm21.318 0a8.636 8.636 0 01-2.16.18c-.704-.032-1.336-.184-1.896-.456a2.736 2.736 0 01-1.26-1.272 3.738 3.738 0 01-.384-1.452 53.052 53.052 0 01-.024-1.692v-11.868h1.752v11.796c0 .544.004 1 .012 1.368.016.36.1.68.252.96.288.536.744.856 1.368.96.632.104 1.412.08 2.34-.072v1.548zm-8.496-11.448v-1.512h8.496v1.512h-8.496zm21.266 11.808c-1.288 0-2.388-.292-3.3-.876-.912-.584-1.612-1.392-2.1-2.424s-.732-2.216-.732-3.552c0-1.36.248-2.552.744-3.576s1.2-1.82 2.112-2.388c.92-.576 2.012-.864 3.276-.864 1.296 0 2.4.292 3.312.876.92.576 1.62 1.38 2.1 2.412.488 1.024.732 2.204.732 3.54 0 1.36-.244 2.556-.732 3.588-.488 1.024-1.192 1.824-2.112 2.4-.92.576-2.02.864-3.3.864zm0-1.692c1.44 0 2.512-.476 3.216-1.428.704-.96 1.056-2.204 1.056-3.732 0-1.568-.356-2.816-1.068-3.744-.704-.928-1.772-1.392-3.204-1.392-.968 0-1.768.22-2.4.66-.624.432-1.092 1.036-1.404 1.812-.304.768-.456 1.656-.456 2.664 0 1.56.36 2.812 1.08 3.756.72.936 1.78 1.404 3.18 1.404zm18.151 1.332v-6.612c0-.72-.068-1.38-.204-1.98a4.566 4.566 0 00-.66-1.584 3.017 3.017 0 00-1.164-1.056c-.472-.248-1.048-.372-1.728-.372-.624 0-1.176.108-1.656.324a3.262 3.262 0 00-1.2.936c-.32.4-.564.888-.732 1.464-.168.576-.252 1.232-.252 1.968l-1.248-.276c0-1.328.232-2.444.696-3.348.464-.904 1.104-1.588 1.92-2.052.816-.464 1.752-.696 2.808-.696.776 0 1.452.12 2.028.36.584.24 1.076.564 1.476.972.408.408.736.876.984 1.404.248.52.428 1.076.54 1.668.112.584.168 1.168.168 1.752v7.128h-1.776zm-9.372 0v-12.96h1.596v3.192h.18v9.768h-1.776zm26.123 0a8.636 8.636 0 01-2.16.18c-.704-.032-1.336-.184-1.896-.456a2.736 2.736 0 01-1.26-1.272 3.738 3.738 0 01-.384-1.452 53.052 53.052 0 01-.024-1.692v-11.868h1.752v11.796c0 .544.004 1 .012 1.368.016.36.1.68.252.96.288.536.744.856 1.368.96.632.104 1.412.08 2.34-.072v1.548zm-8.496-11.448v-1.512h8.496v1.512h-8.496zm20.41 11.448v-6.612c0-.72-.068-1.38-.204-1.98a4.566 4.566 0 00-.66-1.584 3.017 3.017 0 00-1.164-1.056c-.472-.248-1.048-.372-1.728-.372-.624 0-1.176.108-1.656.324a3.262 3.262 0 00-1.2.936c-.32.4-.564.888-.732 1.464-.168.576-.252 1.232-.252 1.968l-1.248-.276c0-1.328.232-2.444.696-3.348.464-.904 1.104-1.588 1.92-2.052.816-.464 1.752-.696 2.808-.696.776 0 1.452.12 2.028.36.584.24 1.076.564 1.476.972.408.408.736.876.984 1.404.248.52.428 1.076.54 1.668.112.584.168 1.168.168 1.752v7.128h-1.776zm-9.372 0v-17.28h1.596v9.756h.18v7.524h-1.776zm19.746.36c-1.264 0-2.36-.28-3.288-.84-.92-.56-1.636-1.348-2.148-2.364-.512-1.016-.768-2.208-.768-3.576 0-1.416.252-2.64.756-3.672s1.212-1.828 2.124-2.388c.92-.56 2.004-.84 3.252-.84 1.28 0 2.372.296 3.276.888.904.584 1.588 1.424 2.052 2.52.464 1.096.676 2.404.636 3.924h-1.8v-.624c-.032-1.68-.396-2.948-1.092-3.804-.688-.856-1.696-1.284-3.024-1.284-1.392 0-2.46.452-3.204 1.356-.736.904-1.104 2.192-1.104 3.864 0 1.632.368 2.9 1.104 3.804.744.896 1.796 1.344 3.156 1.344.928 0 1.736-.212 2.424-.636.696-.432 1.244-1.052 1.644-1.86l1.644.636c-.512 1.128-1.268 2.004-2.268 2.628-.992.616-2.116.924-3.372.924zm-4.956-6.348v-1.476h9.9v1.476h-9.9zm24.135 6.348c-1.192 0-2.2-.3-3.024-.9-.824-.608-1.448-1.428-1.872-2.46-.424-1.04-.636-2.204-.636-3.492 0-1.312.212-2.48.636-3.504.432-1.032 1.064-1.844 1.896-2.436.832-.592 1.856-.888 3.072-.888 1.184 0 2.2.3 3.048.9.848.6 1.496 1.416 1.944 2.448.456 1.032.684 2.192.684 3.48 0 1.296-.228 2.46-.684 3.492-.456 1.032-1.112 1.852-1.968 2.46-.856.6-1.888.9-3.096.9zm-5.832-.36v-17.28h1.776v7.524h-.192v9.756h-1.584zm5.652-1.284c.904 0 1.656-.228 2.256-.684.6-.456 1.048-1.076 1.344-1.86.304-.792.456-1.68.456-2.664 0-.976-.148-1.856-.444-2.64-.296-.784-.748-1.404-1.356-1.86-.6-.456-1.364-.684-2.292-.684-.904 0-1.656.22-2.256.66-.592.44-1.036 1.052-1.332 1.836-.296.776-.444 1.672-.444 2.688 0 1 .148 1.896.444 2.688.296.784.744 1.4 1.344 1.848.6.448 1.36.672 2.28.672zm8.803 1.284v-17.64h1.764v17.64h-1.764zm10.774.36c-1.288 0-2.388-.292-3.3-.876-.912-.584-1.612-1.392-2.1-2.424s-.732-2.216-.732-3.552c0-1.36.248-2.552.744-3.576s1.2-1.82 2.112-2.388c.92-.576 2.012-.864 3.276-.864 1.296 0 2.4.292 3.312.876.92.576 1.62 1.38 2.1 2.412.488 1.024.732 2.204.732 3.54 0 1.36-.244 2.556-.732 3.588-.488 1.024-1.192 1.824-2.112 2.4-.92.576-2.02.864-3.3.864zm0-1.692c1.44 0 2.512-.476 3.216-1.428.704-.96 1.056-2.204 1.056-3.732 0-1.568-.356-2.816-1.068-3.744-.704-.928-1.772-1.392-3.204-1.392-.968 0-1.768.22-2.4.66-.624.432-1.092 1.036-1.404 1.812-.304.768-.456 1.656-.456 2.664 0 1.56.36 2.812 1.08 3.756.72.936 1.78 1.404 3.18 1.404zm14.167 1.692c-1.304 0-2.408-.292-3.312-.876-.904-.584-1.592-1.388-2.064-2.412-.464-1.032-.704-2.216-.72-3.552.016-1.36.264-2.552.744-3.576.48-1.032 1.172-1.832 2.076-2.4.904-.576 2-.864 3.288-.864 1.312 0 2.452.32 3.42.96a4.837 4.837 0 012.004 2.628l-1.728.552c-.304-.776-.788-1.376-1.452-1.8-.656-.432-1.408-.648-2.256-.648-.952 0-1.74.22-2.364.66-.624.432-1.088 1.036-1.392 1.812-.304.776-.46 1.668-.468 2.676.016 1.552.376 2.8 1.08 3.744.704.936 1.752 1.404 3.144 1.404.88 0 1.628-.2 2.244-.6.624-.408 1.096-1 1.416-1.776l1.776.528c-.48 1.152-1.184 2.032-2.112 2.64-.928.6-2.036.9-3.324.9zm7.901-.36l.012-17.28h1.776v10.56l5.784-6.24h2.352l-6.072 6.48 6.864 6.48h-2.568l-6.36-6.24v6.24h-1.788zm17.06.36c-1.304 0-2.408-.292-3.312-.876-.904-.584-1.592-1.388-2.064-2.412-.464-1.032-.704-2.216-.72-3.552.016-1.36.264-2.552.744-3.576.48-1.032 1.172-1.832 2.076-2.4.904-.576 2-.864 3.288-.864 1.312 0 2.452.32 3.42.96a4.837 4.837 0 012.004 2.628l-1.728.552c-.304-.776-.788-1.376-1.452-1.8-.656-.432-1.408-.648-2.256-.648-.952 0-1.74.22-2.364.66-.624.432-1.088 1.036-1.392 1.812-.304.776-.46 1.668-.468 2.676.016 1.552.376 2.8 1.08 3.744.704.936 1.752 1.404 3.144 1.404.88 0 1.628-.2 2.244-.6.624-.408 1.096-1 1.416-1.776l1.776.528c-.48 1.152-1.184 2.032-2.112 2.64-.928.6-2.036.9-3.324.9zm17.273-.36v-6.612c0-.72-.068-1.38-.204-1.98a4.566 4.566 0 00-.66-1.584 3.017 3.017 0 00-1.164-1.056c-.472-.248-1.048-.372-1.728-.372-.624 0-1.176.108-1.656.324a3.262 3.262 0 00-1.2.936c-.32.4-.564.888-.732 1.464-.168.576-.252 1.232-.252 1.968l-1.248-.276c0-1.328.232-2.444.696-3.348.464-.904 1.104-1.588 1.92-2.052.816-.464 1.752-.696 2.808-.696.776 0 1.452.12 2.028.36.584.24 1.076.564 1.476.972.408.408.736.876.984 1.404.248.52.428 1.076.54 1.668.112.584.168 1.168.168 1.752v7.128h-1.776zm-9.372 0v-17.28h1.596v9.756h.18v7.524h-1.776zm17.97.36c-.976 0-1.796-.176-2.46-.528-.656-.352-1.148-.82-1.476-1.404a3.831 3.831 0 01-.492-1.908c0-.704.14-1.304.42-1.8a3.587 3.587 0 011.164-1.236 5.848 5.848 0 011.716-.732c.656-.16 1.38-.3 2.172-.42.8-.128 1.58-.236 2.34-.324.768-.096 1.44-.188 2.016-.276l-.624.384c.024-1.28-.224-2.228-.744-2.844-.52-.616-1.424-.924-2.712-.924-.888 0-1.64.2-2.256.6-.608.4-1.036 1.032-1.284 1.896l-1.716-.504c.296-1.16.892-2.06 1.788-2.7.896-.64 2.06-.96 3.492-.96 1.184 0 2.188.224 3.012.672.832.44 1.42 1.08 1.764 1.92.16.376.264.796.312 1.26.048.464.072.936.072 1.416v8.052h-1.572v-3.252l.456.192c-.44 1.112-1.124 1.96-2.052 2.544-.928.584-2.04.876-3.336.876zm.204-1.524c.824 0 1.544-.148 2.16-.444a3.906 3.906 0 001.488-1.212c.376-.52.62-1.104.732-1.752.096-.416.148-.872.156-1.368.008-.504.012-.88.012-1.128l.672.348c-.6.08-1.252.16-1.956.24-.696.08-1.384.172-2.064.276-.672.104-1.28.228-1.824.372a4.946 4.946 0 00-1.068.444 2.465 2.465 0 00-.852.744c-.216.312-.324.7-.324 1.164 0 .376.092.74.276 1.092.192.352.496.644.912.876.424.232.984.348 1.68.348zm9.664-14.256v-1.98h1.764v1.98h-1.764zm0 15.42v-12.96h1.764v12.96h-1.764zm14.722 0v-6.612c0-.72-.068-1.38-.204-1.98a4.566 4.566 0 00-.66-1.584 3.017 3.017 0 00-1.164-1.056c-.472-.248-1.048-.372-1.728-.372-.624 0-1.176.108-1.656.324a3.262 3.262 0 00-1.2.936c-.32.4-.564.888-.732 1.464-.168.576-.252 1.232-.252 1.968l-1.248-.276c0-1.328.232-2.444.696-3.348.464-.904 1.104-1.588 1.92-2.052.816-.464 1.752-.696 2.808-.696.776 0 1.452.12 2.028.36.584.24 1.076.564 1.476.972.408.408.736.876.984 1.404.248.52.428 1.076.54 1.668.112.584.168 1.168.168 1.752v7.128h-1.776zm-9.372 0v-12.96h1.596v3.192h.18v9.768h-1.776z" fill="#2E3048"/></g></g><defs><linearGradient id="prefix__paint0_linear_1350_1107" x1="56.016" y1="185.977" x2="1255.87" y2="185.977" gradientUnits="userSpaceOnUse"><stop stop-color="#662681"/><stop offset=".15" stop-color="#692581"/><stop offset=".26" stop-color="#722381"/><stop offset=".36" stop-color="#822080"/><stop offset=".43" stop-color="#931C80"/><stop offset=".62" stop-color="#B51C7B"/><stop offset=".87" stop-color="#D91D75"/><stop offset="1" stop-color="#E71D73"/></linearGradient><linearGradient id="prefix__paint1_linear_1350_1107" x1="-93.123" y1="214.478" x2="1404.87" y2="214.478" gradientUnits="userSpaceOnUse"><stop stop-color="#662681"/><stop offset=".15" stop-color="#692581"/><stop offset=".26" stop-color="#722381"/><stop offset=".36" stop-color="#822080"/><stop offset=".43" stop-color="#931C80"/><stop offset=".62" stop-color="#B51C7B"/><stop offset=".87" stop-color="#D91D75"/><stop offset="1" stop-color="#E71D73"/></linearGradient><linearGradient id="prefix__paint2_linear_1350_1107" x1="485.602" y1="399.516" x2="957.826" y2="266.978" gradientUnits="userSpaceOnUse"><stop stop-color="#662681"/><stop offset=".817" stop-color="#B91C7B"/></linearGradient><clipPath id="prefix__clip0_1350_1107"><rect x="56" y="42.973" width="1200" height="404.027" rx="40" fill="#fff"/></clipPath><filter id="prefix__filter0_dddddd_1350_1107" x="0" y=".973" width="1312" height="516.027" filterUnits="userSpaceOnUse" color-interpolation-filters="sRGB"><feFlood flood-opacity="0" result="BackgroundImageFix"/><feColorMatrix in="SourceAlpha" values="0 0 0 0 0 0 0 0 0 0 0 0 0 0 0 0 0 0 127 0" result="hardAlpha"/><feOffset dy=".259"/><feGaussianBlur stdDeviation="1.102"/><feColorMatrix values="0 0 0 0 0 0 0 0 0 0 0 0 0 0 0 0 0 0 0.01 0"/><feBlend in2="BackgroundImageFix" result="effect1_dropShadow_1350_1107"/><feColorMatrix in="SourceAlpha" values="0 0 0 0 0 0 0 0 0 0 0 0 0 0 0 0 0 0 127 0" result="hardAlpha"/><feOffset dy="1.141"/><feGaussianBlur stdDeviation="2.281"/><feColorMatrix values="0 0 0 0 0 0 0 0 0 0 0 0 0 0 0 0 0 0 0.0117778 0"/><feBlend in2="effect1_dropShadow_1350_1107" result="effect2_dropShadow_1350_1107"/><feColorMatrix in="SourceAlpha" values="0 0 0 0 0 0 0 0 0 0 0 0 0 0 0 0 0 0 127 0" result="hardAlpha"/><feOffset dy="2.8"/><feGaussianBlur stdDeviation="4.55"/><feColorMatrix values="0 0 0 0 0 0 0 0 0 0 0 0 0 0 0 0 0 0 0.015 0"/><feBlend in2="effect2_dropShadow_1350_1107" result="effect3_dropShadow_1350_1107"/><feColorMatrix in="SourceAlpha" values="0 0 0 0 0 0 0 0 0 0 0 0 0 0 0 0 0 0 127 0" result="hardAlpha"/><feOffset dy="5.393"/><feGaussianBlur stdDeviation="8.919"/><feColorMatrix values="0 0 0 0 0 0 0 0 0 0 0 0 0 0 0 0 0 0 0.0182222 0"/><feBlend in2="effect3_dropShadow_1350_1107" result="effect4_dropShadow_1350_1107"/><feColorMatrix in="SourceAlpha" values="0 0 0 0 0 0 0 0 0 0 0 0 0 0 0 0 0 0 127 0" result="hardAlpha"/><feOffset dy="9.074"/><feGaussianBlur stdDeviation="16.398"/><feColorMatrix values="0 0 0 0 0 0 0 0 0 0 0 0 0 0 0 0 0 0 0.0227778 0"/><feBlend in2="effect4_dropShadow_1350_1107" result="effect5_dropShadow_1350_1107"/><feColorMatrix in="SourceAlpha" values="0 0 0 0 0 0 0 0 0 0 0 0 0 0 0 0 0 0 127 0" result="hardAlpha"/><feOffset dy="14"/><feGaussianBlur stdDeviation="28"/><feColorMatrix values="0 0 0 0 0 0 0 0 0 0 0 0 0 0 0 0 0 0 0.03 0"/><feBlend in2="effect5_dropShadow_1350_1107" result="effect6_dropShadow_1350_1107"/><feBlend in="SourceGraphic" in2="effect6_dropShadow_1350_1107" result="shape"/></filter></defs></svg>