<svg fill="none" height="440" width="440" xmlns="http://www.w3.org/2000/svg"><path d="m0 0h440v440h-440z" fill="#2e3048"/><path d="m311.559 277.019c-.826-2.195-1.652-4.391-2.35-6.649-8.192-26.849-12.828-84.624-15.749-118.059-6.731-75.654-32.958-137.694-73.473-139.953v-.502c-40.515 2.196-66.741 64.3-73.473 139.89-2.984 33.498-7.557 91.211-15.748 118.059-.762 2.259-1.524 4.517-2.35 6.65-126.117 64.926 60.963 73.458 91.571 73.897v.502c30.609-.44 217.752-8.971 91.572-73.897z" fill="#2e3048"/><path d="m277.903 376.763c11.05-19.813 19.051-47.691 19.051-63.313 0-3.937-.381-8.001-1.016-11.875-2.222-13.589-9.652-22.797-17.908-22.734h-.19c-8.319 0-15.685 9.145-17.908 22.734-.635 3.937-1.016 7.938-1.016 11.875 0 15.622 8.001 43.436 19.051 63.313z" fill="#c11c79"/><path d="m277.903 336.82c5.97-10.732 10.288-25.846 10.288-34.292a43.05 43.05 0 0 0 -.508-6.414c-1.207-7.366-5.207-12.319-9.716-12.319h-.127c-4.509 0-8.509 4.953-9.716 12.319-.381 2.096-.508 4.318-.508 6.414 0 8.446 4.318 23.56 10.287 34.292z" fill="#ff438b"/><path d="m161.629 379.748c11.049-19.813 19.051-47.691 19.051-63.313 0-3.937-.381-8.001-1.016-11.875-2.223-13.59-9.653-22.797-17.908-22.734h-.191c-8.319 0-15.685 9.144-17.908 22.734-.635 3.937-1.016 7.938-1.016 11.875 0 15.622 8.002 43.436 19.051 63.313z" fill="#c11c79"/><path d="m161.629 336.819c5.969-10.732 10.288-25.845 10.288-34.291 0-2.159-.191-4.318-.572-6.414-1.207-7.366-5.207-12.32-9.716-12.32h-.127c-4.509 0-8.509 4.954-9.716 12.32a36.492 36.492 0 0 0 -.571 6.414c0 8.446 4.318 23.559 10.287 34.291z" fill="#ff438b"/><path d="m219.734 422.612c17.654-29.148 30.418-69.98 30.418-92.905 0-5.842-.572-11.748-1.588-17.463-3.619-19.94-15.431-33.466-28.703-33.403h-.318c-13.272-.063-25.083 13.399-28.703 33.403-1.016 5.715-1.588 11.621-1.588 17.463 0 22.925 12.765 63.82 30.418 92.905z" fill="#c11c79"/><path d="m219.733 364.635c8.001-12.764 13.78-30.736 13.78-40.833 0-2.54-.254-5.143-.698-7.684-1.651-8.763-6.986-14.732-12.955-14.669h-.127c-5.969 0-11.367 5.906-12.955 14.669-.444 2.541-.698 5.144-.698 7.684 0 10.097 5.779 28.005 13.78 40.833z" fill="#ff438b"/><path d="m220.114 20.575c-37.403 0-59.121 78.616-64.138 136.34-2.159 25.084-5.271 70.235-9.081 90.937-2.223 12.319-9.843 32.513-10.415 34.101-34.101 21.083-42.039 30.799-40.07 33.212.889 1.016 13.907-1.588 29.084-4.763 11.812-2.476 25.148-4.89 33.784-9.208 33.72-16.765 28.894-52.009 34.673-52.199 6.604-.191 2.667 10.605 7.556 22.416 6.541 15.876 23.687 33.657 64.392 27.561-11.303-9.843-13.716-49.596-6.604-49.596 5.334 0 .889 20.765 22.988 41.975 20.258 19.496 61.852 25.274 62.17 23.75 1.397-7.683-28.069-23.242-41.023-32.958-8.954-21.146-15.495-111.574-17.019-125.545-7.112-65.218-27.56-136.087-66.234-136.087l-.063.064z" fill="#fff"/><g fill="#2e3048"><path d="m220.114 20.575c38.673 0 59.185 70.87 66.233 136.087 1.525 13.907 8.065 104.399 17.019 125.545 12.955 9.716 42.357 25.211 41.023 32.958 0 .127-.444.254-1.27.254-7.176 0-42.61-6.477-60.836-24.004-22.099-21.273-17.654-41.975-22.988-41.975-7.112 0-4.699 39.752 6.605 49.595-5.589.826-10.732 1.207-15.495 1.207-29.72 0-43.246-15.114-48.898-28.83-4.826-11.748-1.079-22.417-7.429-22.417h-.191c-5.779.191-.952 35.435-34.672 52.2-8.637 4.318-21.909 6.667-33.784 9.207-12.828 2.731-24.195 5.017-27.878 5.017-.635 0-1.08-.063-1.206-.254-1.969-2.349 5.969-12.129 40.07-33.212.635-1.651 8.192-21.781 10.414-34.101 3.747-20.702 6.859-65.789 9.081-90.936 5.144-57.788 26.799-136.341 64.202-136.341zm0-10.224c-48.643 0-69.599 91.571-74.299 145.676-.444 5.334-.952 11.494-1.524 18.162-2.032 24.893-4.572 55.946-7.43 71.758-1.524 8.382-6.159 21.972-8.763 29.084-40.07 25.147-41.34 32.958-42.039 37.213-.571 3.429.318 6.795 2.477 9.398 2.159 2.604 5.207 3.938 9.08 3.938 3.874 0 11.241-1.27 29.974-5.271l4.445-.953c11.304-2.349 23.052-4.762 31.752-9.144 16.384-8.128 25.083-20.131 30.1-30.99 6.604 13.146 22.036 31.117 56.518 31.117 5.334 0 11.049-.445 16.955-1.334l17.527-2.603c21.464 14.161 50.929 19.114 58.232 19.114 9.526 0 11.177-7.811 11.367-8.7 2.159-12.192-11.938-21.273-31.497-33.91-4.064-2.604-7.938-5.081-11.05-7.303-6.414-19.686-12.002-82.808-14.161-107.257-.508-5.969-.953-10.541-1.207-12.891-4.762-43.563-21.718-145.104-76.457-145.104z"/><path d="m196.237 146.184c7.189 0 13.018-10.15 13.018-22.671s-5.829-22.67-13.018-22.67c-7.19 0-13.018 10.149-13.018 22.67s5.828 22.671 13.018 22.671zm48.136 0c7.19 0 13.019-10.15 13.019-22.671s-5.829-22.67-13.019-22.67c-7.189 0-13.018 10.149-13.018 22.67s5.829 22.671 13.018 22.671zm-23.243 23.115c2.982 0 5.398-3.07 5.398-6.858s-2.416-6.858-5.398-6.858c-2.981 0-5.397 3.07-5.397 6.858s2.416 6.858 5.397 6.858z"/></g></svg>