<svg fill="none" height="600" viewBox="0 0 600 600" width="600" xmlns="http://www.w3.org/2000/svg" xmlns:xlink="http://www.w3.org/1999/xlink"><linearGradient id="a" gradientUnits="userSpaceOnUse" x1="484.583" x2="3.46799" y1="66.9231" y2="383.646"><stop offset="0" stop-color="#064b8d"/><stop offset="1" stop-color="#5c2134"/></linearGradient><rect fill="url(#a)" height="600" rx="300" width="600"/><path d="m458.011 279.419c-7.649-13.282-19.017-24.015-32.721-30.922-14.183-7.067-29.853-10.626-45.682-10.414-14.554-.159-28.95 3.347-41.804 10.148-12.217 6.482-22.629 15.78-30.384 27.204-7.649-9.777-17.21-18.012-28.047-24.175-15.404-8.661-32.88-13.071-50.568-12.858-15.989-.16-31.765 3.666-45.842 11.158-5.524 2.922-10.729 6.428-15.51 10.466v-77.412c.106-2.497-.266-4.942-1.169-7.279-.903-2.338-2.284-4.41-4.037-6.164-1.753-1.753-3.877-3.134-6.215-3.984-2.39-.904-4.886-1.276-7.383-1.169-4.834-.053-9.508 1.7-13.014 4.994-1.859 1.753-3.293 3.825-4.25 6.163-1.009 2.338-1.434 4.888-1.381 7.386v156.206c.213 17.268 4.887 34.164 13.599 49.041 8.446 14.399 20.61 26.3 35.217 34.482 15.192 8.501 32.349 12.858 49.772 12.699 17.689.265 35.165-4.198 50.569-12.805 14.767-8.395 26.984-20.562 35.377-35.226 8.711-15.355 13.173-32.676 12.961-50.316v-19.765c-.106-7.438 2.125-14.717 6.374-20.774 4.674-6.535 10.996-11.795 18.379-15.09 8.552-3.878 17.901-5.791 27.303-5.632 9.561-.159 19.016 1.86 27.675 5.951 7.702 3.773 14.129 9.723 18.432 17.162 4.993 9.298 7.383 19.765 6.905 30.285v87.561c0 4.941 1.965 9.67 5.471 13.123 3.506 3.507 8.234 5.473 13.227 5.473s9.72-1.966 13.226-5.473 5.471-8.235 5.471-13.123v-87.88c.478-17.108-3.612-34.057-11.898-49.041zm-260.652 2.923c7.011-4.145 14.82-6.854 22.947-7.97 8.074-1.116 16.36-.638 24.222 1.435 7.914 2.072 15.298 5.685 21.778 10.626 6.481 4.941 11.899 11.157 15.989 18.171 4.834 8.448 7.596 17.905 8.021 27.628v5.048 1.541c-.159 10.413-2.922 20.668-8.074 29.753-5.259 9.192-12.855 16.896-22.044 22.316-9.615 5.366-20.451 8.182-31.5 8.182-11.048 0-21.884-2.816-31.499-8.182-9.242-5.314-16.838-13.018-21.991-22.316-5.418-9.882-8.18-20.934-8.021-32.197-.212-11.211 2.55-22.209 8.021-32.039 5.259-9.192 12.855-16.789 22.044-22.049z" fill="#fff"/></svg>