<svg height="700pt" preserveAspectRatio="xMidYMid meet" viewBox="0 0 700 700" width="700pt" xmlns="http://www.w3.org/2000/svg"><g transform="matrix(.1 0 0 -.1 0 700)"><path d="m0 3500v-3500h3500 3500v3500 3500h-3500-3500zm3625 3155c98-26 173-73 271-170 217-213 375-559 509-1110 85-347 127-629 180-1205 84-912 141-1329 217-1589l22-73 230-152c316-209 399-277 421-345l7-24-83 6c-244 17-633 162-828 307-174 129-307 329-367 550-43 159-52 180-80 180-97 0-79-444 27-670 17-36 40-75 51-87 12-13 18-26 14-30-4-5-103-8-219-8-188 1-221 3-291 23-290 81-493 296-534 567-6 39-14 94-18 124-7 57-30 91-64 91-27 0-38-24-75-169-63-240-119-352-239-478-110-117-226-188-386-237-130-40-624-143-813-170-51-7-57 13-21 65 44 64 201 189 420 335l202 134 55 168c121 366 137 468 217 1422 53 625 73 784 141 1105 170 804 458 1331 784 1435 73 23 171 25 250 5z"/><path d="m3084 5389c-17-5-49-28-71-52-128-139-127-469 1-605 183-193 388 151 286 479-40 132-127 203-216 178z"/><path d="m3844 5384c-71-24-130-118-155-248-36-189 40-411 155-450 59-20 103-6 153 49 70 77 87 136 87 300s-17 223-87 300c-50 55-94 69-153 49z"/><path d="m3461 4494c-64-81-8-203 82-180 50 12 74 104 42 165-25 50-91 57-124 15z"/></g></svg>