<svg width="215" height="233" fill="none" xmlns="http://www.w3.org/2000/svg"><path d="M113.5 95.675c2-114.59 15-49.11 15 0C128.5 144.784 162 206 215 233H0s111.5-22.736 113.5-137.325z" fill="#2E3048"/><path d="M153.746 95.335a42.632 42.632 0 01-.84-2.382c-2.93-9.617-4.588-30.313-5.633-42.29-2.407-27.1-11.787-49.323-26.278-50.132v-.18c-14.49.787-23.87 23.033-26.278 50.11-1.067 12-2.703 32.672-5.632 42.29a58.457 58.457 0 01-.84 2.382c-45.107 23.257 21.803 26.313 32.75 26.47v.18c10.948-.157 77.881-3.213 32.751-26.47v.022z" fill="#20223A"/><path d="M141.709 131.049c3.952-7.086 6.813-17.056 6.813-22.644a26.6 26.6 0 00-.363-4.247c-.795-4.86-3.452-8.154-6.405-8.13h-.068c-2.975 0-5.61 3.27-6.405 8.13a26.819 26.819 0 00-.363 4.247c0 5.588 2.862 15.536 6.814 22.644h-.023z" fill="#C11C79"/><path d="M141.709 116.763c2.135-3.838 3.679-9.243 3.679-12.264 0-.772-.068-1.545-.182-2.294-.431-2.635-1.862-4.406-3.474-4.406h-.046c-1.612 0-3.043 1.771-3.475 4.406a13.038 13.038 0 00-.182 2.294c0 3.021 1.545 8.426 3.68 12.264z" fill="#FF438B"/><path d="M100.123 132.117c3.952-7.086 6.813-17.057 6.813-22.644a26.59 26.59 0 00-.363-4.247c-.795-4.861-3.452-8.154-6.405-8.131h-.068c-2.975 0-5.61 3.27-6.405 8.131a26.808 26.808 0 00-.363 4.247c0 5.587 2.862 15.535 6.813 22.644h-.022z" fill="#C11C79"/><path d="M100.123 116.764c2.135-3.839 3.679-9.244 3.679-12.265 0-.772-.068-1.544-.204-2.294-.432-2.635-1.863-4.406-3.475-4.406h-.046c-1.612 0-3.043 1.771-3.475 4.406-.136.75-.204 1.544-.204 2.294 0 3.021 1.544 8.426 3.679 12.265h.046z" fill="#FF438B"/><path d="M120.904 151.536c6.314-10.425 10.88-25.029 10.88-33.228 0-2.089-.205-4.202-.568-6.246-1.295-7.131-5.519-11.969-10.266-11.946h-.114c-4.747-.023-8.971 4.792-10.266 11.946a35.933 35.933 0 00-.567 6.246c0 8.199 4.565 22.826 10.879 33.228h.022z" fill="#C11C79"/><path d="M120.904 130.8c2.862-4.565 4.929-10.993 4.929-14.604 0-.909-.091-1.84-.25-2.748-.59-3.135-2.498-5.27-4.633-5.247h-.046c-2.134 0-4.065 2.112-4.633 5.247-.159.908-.25 1.839-.25 2.748 0 3.611 2.067 10.016 4.929 14.604h-.046z" fill="#FF438B"/><path d="M121.041 3.657c-13.378 0-21.145 28.117-22.94 48.763-.772 8.971-1.885 25.12-3.247 32.524-.795 4.406-3.52 11.628-3.725 12.196-12.197 7.541-15.036 11.016-14.332 11.879.318.363 4.974-.568 10.403-1.704 4.224-.885 8.994-1.749 12.082-3.293 12.061-5.996 10.335-18.601 12.401-18.67 2.362-.068.954 3.793 2.703 8.018 2.339 5.678 8.472 12.037 23.03 9.857-4.042-3.52-4.906-17.738-2.362-17.738 1.908 0 .318 7.427 8.222 15.013 7.245 6.972 22.122 9.039 22.235 8.494.5-2.748-10.038-8.313-14.672-11.788-3.202-7.563-5.542-39.905-6.087-44.902-2.543-23.325-9.857-48.672-23.688-48.672l-.023.023z" fill="#E8E8E8"/><path d="M121.041 3.657c13.831 0 21.168 25.346 23.689 48.672.545 4.974 2.884 37.339 6.086 44.902 4.634 3.475 15.15 9.017 14.673 11.788 0 .045-.159.091-.455.091-2.566 0-15.24-2.317-21.758-8.586-7.904-7.608-6.314-15.012-8.222-15.012-2.544 0-1.681 14.218 2.362 17.738a37.945 37.945 0 01-5.542.431c-10.629 0-15.467-5.405-17.488-10.311-1.726-4.202-.386-8.017-2.657-8.017h-.068c-2.067.068-.341 12.673-12.401 18.669-3.09 1.545-7.836 2.385-12.083 3.293-4.588.977-8.654 1.795-9.97 1.795-.228 0-.387-.023-.432-.091-.705-.841 2.134-4.338 14.331-11.879.227-.59 2.93-7.79 3.725-12.196 1.34-7.404 2.453-23.53 3.248-32.524 1.84-20.668 9.584-48.763 22.962-48.763zm0-3.657c-17.398 0-24.893 32.751-26.574 52.102-.159 1.908-.34 4.11-.545 6.496-.727 8.903-1.635 20.01-2.657 25.664-.545 2.998-2.203 7.859-3.134 10.403-14.332 8.994-14.786 11.787-15.036 13.309-.204 1.226.114 2.43.886 3.361.772.932 1.862 1.409 3.248 1.409 1.385 0 4.02-.455 10.72-1.886l1.59-.34c4.043-.841 8.244-1.704 11.356-3.271 5.86-2.907 8.971-7.2 10.766-11.083 2.362 4.701 7.881 11.129 20.213 11.129 1.908 0 3.952-.159 6.065-.477l6.268-.932c7.677 5.065 18.215 6.837 20.827 6.837 3.407 0 3.998-2.794 4.066-3.112.772-4.36-4.27-7.608-11.265-12.128-1.454-.931-2.839-1.817-3.952-2.612-2.294-7.04-4.293-29.617-5.065-38.36-.182-2.136-.341-3.771-.432-4.611C146.683 36.317 140.619 0 121.041 0z" fill="#20223A"/><path d="M112.501 48.581c2.571 0 4.656-3.63 4.656-8.108 0-4.478-2.085-8.108-4.656-8.108-2.572 0-4.656 3.63-4.656 8.108 0 4.478 2.084 8.108 4.656 8.108zM129.717 48.581c2.571 0 4.656-3.63 4.656-8.108 0-4.478-2.085-8.108-4.656-8.108-2.572 0-4.656 3.63-4.656 8.108 0 4.478 2.084 8.108 4.656 8.108z" fill="#20223A"/><path opacity=".2" d="M114.409 84.58c-.795 3.612-1.068 6.473.749 10.357 1.567 2.907 4.247 5.769 8.608 7.382-6.609-6.587-7.268-10.266-9.335-17.739h-.022zM100.35 103.409c1.09-3.702 2.271-11.016 2.112-14.945-.204 1.408-4.202 9.607-4.202 9.607s-4.338 4.929-10.152 9.017c3.997-.84 8.29-1.681 11.152-3.089.386-.181.749-.386 1.09-.59zM136.258 83.059c0 2.77.318 8.13 2.884 12.31.977 1.635 2.294 3.384 4.111 5.133 5.383 5.178 14.99 7.654 19.601 8.358-16.467-8.154-21.668-15.013-26.596-25.801z" fill="#2E3048"/><path d="M121.404 56.849c1.066 0 1.93-1.098 1.93-2.453 0-1.355-.864-2.453-1.93-2.453-1.066 0-1.931 1.098-1.931 2.453 0 1.355.865 2.453 1.931 2.453z" fill="#20223A"/><path d="M134.555 13.864c-3.566-6.337-8.04-10.357-13.56-10.357-5.133 0-14.69 5.61-20.368 32.865 6.814-12.492 12.492-27.255 20.732-26.278 4.679 0 9.085 1.34 13.173 3.748l.023.022z" fill="#C3C3C8"/></svg>